<?xml version="1.0" encoding="UTF-8" standalone="no"?>
<!-- This is a Stata 18.0 generated SVG file (http://www.stata.com) -->

<svg version="1.1" width="7.500in" height="4.500in" viewBox="0 0 5400 3240" xmlns="http://www.w3.org/2000/svg" xmlns:xlink="http://www.w3.org/1999/xlink">
	<desc>Stata Graph - Graph</desc>
	<rect x="0" y="0" width="5400" height="3240" style="fill:#FFFFFF;stroke:none"/>
	<rect x="0.00" y="0.00" width="5400.00" height="3240.00" style="fill:#FFFFFF"/>
	<rect x="3.24" y="3.24" width="5393.52" height="3233.52" style="fill:none;stroke:#FFFFFF;stroke-width:6.48"/>
	<rect x="493.26" y="113.40" width="4793.34" height="2653.26" style="fill:#FFFFFF"/>
	<rect x="496.50" y="116.64" width="4786.86" height="2646.78" style="fill:none;stroke:#FFFFFF;stroke-width:6.48"/>
	<line x1="493.26" y1="2766.66" x2="558.06" y2="2766.66" style="stroke:#F0F0F0;stroke-width:9.72"/>
	<line x1="590.46" y1="2766.66" x2="655.26" y2="2766.66" style="stroke:#F0F0F0;stroke-width:9.72"/>
	<line x1="687.66" y1="2766.66" x2="752.46" y2="2766.66" style="stroke:#F0F0F0;stroke-width:9.72"/>
	<line x1="784.86" y1="2766.66" x2="849.66" y2="2766.66" style="stroke:#F0F0F0;stroke-width:9.72"/>
	<line x1="882.06" y1="2766.66" x2="946.86" y2="2766.66" style="stroke:#F0F0F0;stroke-width:9.72"/>
	<line x1="979.26" y1="2766.66" x2="1044.06" y2="2766.66" style="stroke:#F0F0F0;stroke-width:9.72"/>
	<line x1="1076.46" y1="2766.66" x2="1141.26" y2="2766.66" style="stroke:#F0F0F0;stroke-width:9.72"/>
	<line x1="1173.66" y1="2766.66" x2="1238.46" y2="2766.66" style="stroke:#F0F0F0;stroke-width:9.72"/>
	<line x1="1270.86" y1="2766.66" x2="1335.66" y2="2766.66" style="stroke:#F0F0F0;stroke-width:9.72"/>
	<line x1="1368.06" y1="2766.66" x2="1432.86" y2="2766.66" style="stroke:#F0F0F0;stroke-width:9.72"/>
	<line x1="1465.26" y1="2766.66" x2="1530.06" y2="2766.66" style="stroke:#F0F0F0;stroke-width:9.72"/>
	<line x1="1562.46" y1="2766.66" x2="1627.26" y2="2766.66" style="stroke:#F0F0F0;stroke-width:9.72"/>
	<line x1="1659.66" y1="2766.66" x2="1724.46" y2="2766.66" style="stroke:#F0F0F0;stroke-width:9.72"/>
	<line x1="1756.86" y1="2766.66" x2="1821.66" y2="2766.66" style="stroke:#F0F0F0;stroke-width:9.72"/>
	<line x1="1854.06" y1="2766.66" x2="1918.86" y2="2766.66" style="stroke:#F0F0F0;stroke-width:9.72"/>
	<line x1="1951.26" y1="2766.66" x2="2016.06" y2="2766.66" style="stroke:#F0F0F0;stroke-width:9.72"/>
	<line x1="2048.46" y1="2766.66" x2="2113.26" y2="2766.66" style="stroke:#F0F0F0;stroke-width:9.72"/>
	<line x1="2145.66" y1="2766.66" x2="2210.46" y2="2766.66" style="stroke:#F0F0F0;stroke-width:9.72"/>
	<line x1="2242.86" y1="2766.66" x2="2307.66" y2="2766.66" style="stroke:#F0F0F0;stroke-width:9.72"/>
	<line x1="2340.06" y1="2766.66" x2="2404.86" y2="2766.66" style="stroke:#F0F0F0;stroke-width:9.72"/>
	<line x1="2437.26" y1="2766.66" x2="2502.06" y2="2766.66" style="stroke:#F0F0F0;stroke-width:9.72"/>
	<line x1="2534.46" y1="2766.66" x2="2599.26" y2="2766.66" style="stroke:#F0F0F0;stroke-width:9.72"/>
	<line x1="2631.66" y1="2766.66" x2="2696.46" y2="2766.66" style="stroke:#F0F0F0;stroke-width:9.72"/>
	<line x1="2728.86" y1="2766.66" x2="2793.66" y2="2766.66" style="stroke:#F0F0F0;stroke-width:9.72"/>
	<line x1="2826.06" y1="2766.66" x2="2890.86" y2="2766.66" style="stroke:#F0F0F0;stroke-width:9.72"/>
	<line x1="2923.26" y1="2766.66" x2="2988.06" y2="2766.66" style="stroke:#F0F0F0;stroke-width:9.72"/>
	<line x1="3020.46" y1="2766.66" x2="3085.26" y2="2766.66" style="stroke:#F0F0F0;stroke-width:9.72"/>
	<line x1="3117.66" y1="2766.66" x2="3182.46" y2="2766.66" style="stroke:#F0F0F0;stroke-width:9.72"/>
	<line x1="3214.86" y1="2766.66" x2="3279.66" y2="2766.66" style="stroke:#F0F0F0;stroke-width:9.72"/>
	<line x1="3312.06" y1="2766.66" x2="3376.86" y2="2766.66" style="stroke:#F0F0F0;stroke-width:9.72"/>
	<line x1="3409.26" y1="2766.66" x2="3474.06" y2="2766.66" style="stroke:#F0F0F0;stroke-width:9.72"/>
	<line x1="3506.46" y1="2766.66" x2="3571.26" y2="2766.66" style="stroke:#F0F0F0;stroke-width:9.72"/>
	<line x1="3603.66" y1="2766.66" x2="3668.46" y2="2766.66" style="stroke:#F0F0F0;stroke-width:9.72"/>
	<line x1="3700.86" y1="2766.66" x2="3765.66" y2="2766.66" style="stroke:#F0F0F0;stroke-width:9.72"/>
	<line x1="3798.06" y1="2766.66" x2="3862.86" y2="2766.66" style="stroke:#F0F0F0;stroke-width:9.72"/>
	<line x1="3895.26" y1="2766.66" x2="3960.06" y2="2766.66" style="stroke:#F0F0F0;stroke-width:9.72"/>
	<line x1="3992.46" y1="2766.66" x2="4057.26" y2="2766.66" style="stroke:#F0F0F0;stroke-width:9.72"/>
	<line x1="4089.66" y1="2766.66" x2="4154.46" y2="2766.66" style="stroke:#F0F0F0;stroke-width:9.72"/>
	<line x1="4186.86" y1="2766.66" x2="4251.66" y2="2766.66" style="stroke:#F0F0F0;stroke-width:9.72"/>
	<line x1="4284.06" y1="2766.66" x2="4348.86" y2="2766.66" style="stroke:#F0F0F0;stroke-width:9.72"/>
	<line x1="4381.26" y1="2766.66" x2="4446.06" y2="2766.66" style="stroke:#F0F0F0;stroke-width:9.72"/>
	<line x1="4478.46" y1="2766.66" x2="4543.26" y2="2766.66" style="stroke:#F0F0F0;stroke-width:9.72"/>
	<line x1="4575.66" y1="2766.66" x2="4640.46" y2="2766.66" style="stroke:#F0F0F0;stroke-width:9.72"/>
	<line x1="4672.86" y1="2766.66" x2="4737.66" y2="2766.66" style="stroke:#F0F0F0;stroke-width:9.72"/>
	<line x1="4770.06" y1="2766.66" x2="4834.86" y2="2766.66" style="stroke:#F0F0F0;stroke-width:9.72"/>
	<line x1="4867.26" y1="2766.66" x2="4932.06" y2="2766.66" style="stroke:#F0F0F0;stroke-width:9.72"/>
	<line x1="4964.46" y1="2766.66" x2="5029.26" y2="2766.66" style="stroke:#F0F0F0;stroke-width:9.72"/>
	<line x1="5061.66" y1="2766.66" x2="5126.46" y2="2766.66" style="stroke:#F0F0F0;stroke-width:9.72"/>
	<line x1="5158.86" y1="2766.66" x2="5223.66" y2="2766.66" style="stroke:#F0F0F0;stroke-width:9.72"/>
	<line x1="5256.06" y1="2766.66" x2="5286.60" y2="2766.66" style="stroke:#F0F0F0;stroke-width:9.72"/>
	<line x1="493.26" y1="2121.19" x2="558.06" y2="2121.19" style="stroke:#F0F0F0;stroke-width:9.72"/>
	<line x1="590.46" y1="2121.19" x2="655.26" y2="2121.19" style="stroke:#F0F0F0;stroke-width:9.72"/>
	<line x1="687.66" y1="2121.19" x2="752.46" y2="2121.19" style="stroke:#F0F0F0;stroke-width:9.72"/>
	<line x1="784.86" y1="2121.19" x2="849.66" y2="2121.19" style="stroke:#F0F0F0;stroke-width:9.72"/>
	<line x1="882.06" y1="2121.19" x2="946.86" y2="2121.19" style="stroke:#F0F0F0;stroke-width:9.72"/>
	<line x1="979.26" y1="2121.19" x2="1044.06" y2="2121.19" style="stroke:#F0F0F0;stroke-width:9.72"/>
	<line x1="1076.46" y1="2121.19" x2="1141.26" y2="2121.19" style="stroke:#F0F0F0;stroke-width:9.72"/>
	<line x1="1173.66" y1="2121.19" x2="1238.46" y2="2121.19" style="stroke:#F0F0F0;stroke-width:9.72"/>
	<line x1="1270.86" y1="2121.19" x2="1335.66" y2="2121.19" style="stroke:#F0F0F0;stroke-width:9.72"/>
	<line x1="1368.06" y1="2121.19" x2="1432.86" y2="2121.19" style="stroke:#F0F0F0;stroke-width:9.72"/>
	<line x1="1465.26" y1="2121.19" x2="1530.06" y2="2121.19" style="stroke:#F0F0F0;stroke-width:9.72"/>
	<line x1="1562.46" y1="2121.19" x2="1627.26" y2="2121.19" style="stroke:#F0F0F0;stroke-width:9.72"/>
	<line x1="1659.66" y1="2121.19" x2="1724.46" y2="2121.19" style="stroke:#F0F0F0;stroke-width:9.72"/>
	<line x1="1756.86" y1="2121.19" x2="1821.66" y2="2121.19" style="stroke:#F0F0F0;stroke-width:9.72"/>
	<line x1="1854.06" y1="2121.19" x2="1918.86" y2="2121.19" style="stroke:#F0F0F0;stroke-width:9.72"/>
	<line x1="1951.26" y1="2121.19" x2="2016.06" y2="2121.19" style="stroke:#F0F0F0;stroke-width:9.72"/>
	<line x1="2048.46" y1="2121.19" x2="2113.26" y2="2121.19" style="stroke:#F0F0F0;stroke-width:9.72"/>
	<line x1="2145.66" y1="2121.19" x2="2210.46" y2="2121.19" style="stroke:#F0F0F0;stroke-width:9.72"/>
	<line x1="2242.86" y1="2121.19" x2="2307.66" y2="2121.19" style="stroke:#F0F0F0;stroke-width:9.72"/>
	<line x1="2340.06" y1="2121.19" x2="2404.86" y2="2121.19" style="stroke:#F0F0F0;stroke-width:9.72"/>
	<line x1="2437.26" y1="2121.19" x2="2502.06" y2="2121.19" style="stroke:#F0F0F0;stroke-width:9.72"/>
	<line x1="2534.46" y1="2121.19" x2="2599.26" y2="2121.19" style="stroke:#F0F0F0;stroke-width:9.72"/>
	<line x1="2631.66" y1="2121.19" x2="2696.46" y2="2121.19" style="stroke:#F0F0F0;stroke-width:9.72"/>
	<line x1="2728.86" y1="2121.19" x2="2793.66" y2="2121.19" style="stroke:#F0F0F0;stroke-width:9.72"/>
	<line x1="2826.06" y1="2121.19" x2="2890.86" y2="2121.19" style="stroke:#F0F0F0;stroke-width:9.72"/>
	<line x1="2923.26" y1="2121.19" x2="2988.06" y2="2121.19" style="stroke:#F0F0F0;stroke-width:9.72"/>
	<line x1="3020.46" y1="2121.19" x2="3085.26" y2="2121.19" style="stroke:#F0F0F0;stroke-width:9.72"/>
	<line x1="3117.66" y1="2121.19" x2="3182.46" y2="2121.19" style="stroke:#F0F0F0;stroke-width:9.72"/>
	<line x1="3214.86" y1="2121.19" x2="3279.66" y2="2121.19" style="stroke:#F0F0F0;stroke-width:9.72"/>
	<line x1="3312.06" y1="2121.19" x2="3376.86" y2="2121.19" style="stroke:#F0F0F0;stroke-width:9.72"/>
	<line x1="3409.26" y1="2121.19" x2="3474.06" y2="2121.19" style="stroke:#F0F0F0;stroke-width:9.72"/>
	<line x1="3506.46" y1="2121.19" x2="3571.26" y2="2121.19" style="stroke:#F0F0F0;stroke-width:9.72"/>
	<line x1="3603.66" y1="2121.19" x2="3668.46" y2="2121.19" style="stroke:#F0F0F0;stroke-width:9.72"/>
	<line x1="3700.86" y1="2121.19" x2="3765.66" y2="2121.19" style="stroke:#F0F0F0;stroke-width:9.72"/>
	<line x1="3798.06" y1="2121.19" x2="3862.86" y2="2121.19" style="stroke:#F0F0F0;stroke-width:9.72"/>
	<line x1="3895.26" y1="2121.19" x2="3960.06" y2="2121.19" style="stroke:#F0F0F0;stroke-width:9.72"/>
	<line x1="3992.46" y1="2121.19" x2="4057.26" y2="2121.19" style="stroke:#F0F0F0;stroke-width:9.72"/>
	<line x1="4089.66" y1="2121.19" x2="4154.46" y2="2121.19" style="stroke:#F0F0F0;stroke-width:9.72"/>
	<line x1="4186.86" y1="2121.19" x2="4251.66" y2="2121.19" style="stroke:#F0F0F0;stroke-width:9.72"/>
	<line x1="4284.06" y1="2121.19" x2="4348.86" y2="2121.19" style="stroke:#F0F0F0;stroke-width:9.72"/>
	<line x1="4381.26" y1="2121.19" x2="4446.06" y2="2121.19" style="stroke:#F0F0F0;stroke-width:9.72"/>
	<line x1="4478.46" y1="2121.19" x2="4543.26" y2="2121.19" style="stroke:#F0F0F0;stroke-width:9.72"/>
	<line x1="4575.66" y1="2121.19" x2="4640.46" y2="2121.19" style="stroke:#F0F0F0;stroke-width:9.72"/>
	<line x1="4672.86" y1="2121.19" x2="4737.66" y2="2121.19" style="stroke:#F0F0F0;stroke-width:9.72"/>
	<line x1="4770.06" y1="2121.19" x2="4834.86" y2="2121.19" style="stroke:#F0F0F0;stroke-width:9.72"/>
	<line x1="4867.26" y1="2121.19" x2="4932.06" y2="2121.19" style="stroke:#F0F0F0;stroke-width:9.72"/>
	<line x1="4964.46" y1="2121.19" x2="5029.26" y2="2121.19" style="stroke:#F0F0F0;stroke-width:9.72"/>
	<line x1="5061.66" y1="2121.19" x2="5126.46" y2="2121.19" style="stroke:#F0F0F0;stroke-width:9.72"/>
	<line x1="5158.86" y1="2121.19" x2="5223.66" y2="2121.19" style="stroke:#F0F0F0;stroke-width:9.72"/>
	<line x1="5256.06" y1="2121.19" x2="5286.60" y2="2121.19" style="stroke:#F0F0F0;stroke-width:9.72"/>
	<line x1="493.26" y1="1475.72" x2="558.06" y2="1475.72" style="stroke:#F0F0F0;stroke-width:9.72"/>
	<line x1="590.46" y1="1475.72" x2="655.26" y2="1475.72" style="stroke:#F0F0F0;stroke-width:9.72"/>
	<line x1="687.66" y1="1475.72" x2="752.46" y2="1475.72" style="stroke:#F0F0F0;stroke-width:9.72"/>
	<line x1="784.86" y1="1475.72" x2="849.66" y2="1475.72" style="stroke:#F0F0F0;stroke-width:9.72"/>
	<line x1="882.06" y1="1475.72" x2="946.86" y2="1475.72" style="stroke:#F0F0F0;stroke-width:9.72"/>
	<line x1="979.26" y1="1475.72" x2="1044.06" y2="1475.72" style="stroke:#F0F0F0;stroke-width:9.72"/>
	<line x1="1076.46" y1="1475.72" x2="1141.26" y2="1475.72" style="stroke:#F0F0F0;stroke-width:9.72"/>
	<line x1="1173.66" y1="1475.72" x2="1238.46" y2="1475.72" style="stroke:#F0F0F0;stroke-width:9.72"/>
	<line x1="1270.86" y1="1475.72" x2="1335.66" y2="1475.72" style="stroke:#F0F0F0;stroke-width:9.72"/>
	<line x1="1368.06" y1="1475.72" x2="1432.86" y2="1475.72" style="stroke:#F0F0F0;stroke-width:9.72"/>
	<line x1="1465.26" y1="1475.72" x2="1530.06" y2="1475.72" style="stroke:#F0F0F0;stroke-width:9.72"/>
	<line x1="1562.46" y1="1475.72" x2="1627.26" y2="1475.72" style="stroke:#F0F0F0;stroke-width:9.72"/>
	<line x1="1659.66" y1="1475.72" x2="1724.46" y2="1475.72" style="stroke:#F0F0F0;stroke-width:9.72"/>
	<line x1="1756.86" y1="1475.72" x2="1821.66" y2="1475.72" style="stroke:#F0F0F0;stroke-width:9.72"/>
	<line x1="1854.06" y1="1475.72" x2="1918.86" y2="1475.72" style="stroke:#F0F0F0;stroke-width:9.72"/>
	<line x1="1951.26" y1="1475.72" x2="2016.06" y2="1475.72" style="stroke:#F0F0F0;stroke-width:9.72"/>
	<line x1="2048.46" y1="1475.72" x2="2113.26" y2="1475.72" style="stroke:#F0F0F0;stroke-width:9.72"/>
	<line x1="2145.66" y1="1475.72" x2="2210.46" y2="1475.72" style="stroke:#F0F0F0;stroke-width:9.72"/>
	<line x1="2242.86" y1="1475.72" x2="2307.66" y2="1475.72" style="stroke:#F0F0F0;stroke-width:9.72"/>
	<line x1="2340.06" y1="1475.72" x2="2404.86" y2="1475.72" style="stroke:#F0F0F0;stroke-width:9.72"/>
	<line x1="2437.26" y1="1475.72" x2="2502.06" y2="1475.72" style="stroke:#F0F0F0;stroke-width:9.72"/>
	<line x1="2534.46" y1="1475.72" x2="2599.26" y2="1475.72" style="stroke:#F0F0F0;stroke-width:9.72"/>
	<line x1="2631.66" y1="1475.72" x2="2696.46" y2="1475.72" style="stroke:#F0F0F0;stroke-width:9.72"/>
	<line x1="2728.86" y1="1475.72" x2="2793.66" y2="1475.72" style="stroke:#F0F0F0;stroke-width:9.72"/>
	<line x1="2826.06" y1="1475.72" x2="2890.86" y2="1475.72" style="stroke:#F0F0F0;stroke-width:9.72"/>
	<line x1="2923.26" y1="1475.72" x2="2988.06" y2="1475.72" style="stroke:#F0F0F0;stroke-width:9.72"/>
	<line x1="3020.46" y1="1475.72" x2="3085.26" y2="1475.72" style="stroke:#F0F0F0;stroke-width:9.72"/>
	<line x1="3117.66" y1="1475.72" x2="3182.46" y2="1475.72" style="stroke:#F0F0F0;stroke-width:9.72"/>
	<line x1="3214.86" y1="1475.72" x2="3279.66" y2="1475.72" style="stroke:#F0F0F0;stroke-width:9.72"/>
	<line x1="3312.06" y1="1475.72" x2="3376.86" y2="1475.72" style="stroke:#F0F0F0;stroke-width:9.72"/>
	<line x1="3409.26" y1="1475.72" x2="3474.06" y2="1475.72" style="stroke:#F0F0F0;stroke-width:9.72"/>
	<line x1="3506.46" y1="1475.72" x2="3571.26" y2="1475.72" style="stroke:#F0F0F0;stroke-width:9.72"/>
	<line x1="3603.66" y1="1475.72" x2="3668.46" y2="1475.72" style="stroke:#F0F0F0;stroke-width:9.72"/>
	<line x1="3700.86" y1="1475.72" x2="3765.66" y2="1475.72" style="stroke:#F0F0F0;stroke-width:9.72"/>
	<line x1="3798.06" y1="1475.72" x2="3862.86" y2="1475.72" style="stroke:#F0F0F0;stroke-width:9.72"/>
	<line x1="3895.26" y1="1475.72" x2="3960.06" y2="1475.72" style="stroke:#F0F0F0;stroke-width:9.72"/>
	<line x1="3992.46" y1="1475.72" x2="4057.26" y2="1475.72" style="stroke:#F0F0F0;stroke-width:9.72"/>
	<line x1="4089.66" y1="1475.72" x2="4154.46" y2="1475.72" style="stroke:#F0F0F0;stroke-width:9.72"/>
	<line x1="4186.86" y1="1475.72" x2="4251.66" y2="1475.72" style="stroke:#F0F0F0;stroke-width:9.72"/>
	<line x1="4284.06" y1="1475.72" x2="4348.86" y2="1475.72" style="stroke:#F0F0F0;stroke-width:9.72"/>
	<line x1="4381.26" y1="1475.72" x2="4446.06" y2="1475.72" style="stroke:#F0F0F0;stroke-width:9.72"/>
	<line x1="4478.46" y1="1475.72" x2="4543.26" y2="1475.72" style="stroke:#F0F0F0;stroke-width:9.72"/>
	<line x1="4575.66" y1="1475.72" x2="4640.46" y2="1475.72" style="stroke:#F0F0F0;stroke-width:9.72"/>
	<line x1="4672.86" y1="1475.72" x2="4737.66" y2="1475.72" style="stroke:#F0F0F0;stroke-width:9.72"/>
	<line x1="4770.06" y1="1475.72" x2="4834.86" y2="1475.72" style="stroke:#F0F0F0;stroke-width:9.72"/>
	<line x1="4867.26" y1="1475.72" x2="4932.06" y2="1475.72" style="stroke:#F0F0F0;stroke-width:9.72"/>
	<line x1="4964.46" y1="1475.72" x2="5029.26" y2="1475.72" style="stroke:#F0F0F0;stroke-width:9.72"/>
	<line x1="5061.66" y1="1475.72" x2="5126.46" y2="1475.72" style="stroke:#F0F0F0;stroke-width:9.72"/>
	<line x1="5158.86" y1="1475.72" x2="5223.66" y2="1475.72" style="stroke:#F0F0F0;stroke-width:9.72"/>
	<line x1="5256.06" y1="1475.72" x2="5286.60" y2="1475.72" style="stroke:#F0F0F0;stroke-width:9.72"/>
	<line x1="493.26" y1="830.08" x2="558.06" y2="830.08" style="stroke:#F0F0F0;stroke-width:9.72"/>
	<line x1="590.46" y1="830.08" x2="655.26" y2="830.08" style="stroke:#F0F0F0;stroke-width:9.72"/>
	<line x1="687.66" y1="830.08" x2="752.46" y2="830.08" style="stroke:#F0F0F0;stroke-width:9.72"/>
	<line x1="784.86" y1="830.08" x2="849.66" y2="830.08" style="stroke:#F0F0F0;stroke-width:9.72"/>
	<line x1="882.06" y1="830.08" x2="946.86" y2="830.08" style="stroke:#F0F0F0;stroke-width:9.72"/>
	<line x1="979.26" y1="830.08" x2="1044.06" y2="830.08" style="stroke:#F0F0F0;stroke-width:9.72"/>
	<line x1="1076.46" y1="830.08" x2="1141.26" y2="830.08" style="stroke:#F0F0F0;stroke-width:9.72"/>
	<line x1="1173.66" y1="830.08" x2="1238.46" y2="830.08" style="stroke:#F0F0F0;stroke-width:9.72"/>
	<line x1="1270.86" y1="830.08" x2="1335.66" y2="830.08" style="stroke:#F0F0F0;stroke-width:9.72"/>
	<line x1="1368.06" y1="830.08" x2="1432.86" y2="830.08" style="stroke:#F0F0F0;stroke-width:9.72"/>
	<line x1="1465.26" y1="830.08" x2="1530.06" y2="830.08" style="stroke:#F0F0F0;stroke-width:9.72"/>
	<line x1="1562.46" y1="830.08" x2="1627.26" y2="830.08" style="stroke:#F0F0F0;stroke-width:9.72"/>
	<line x1="1659.66" y1="830.08" x2="1724.46" y2="830.08" style="stroke:#F0F0F0;stroke-width:9.72"/>
	<line x1="1756.86" y1="830.08" x2="1821.66" y2="830.08" style="stroke:#F0F0F0;stroke-width:9.72"/>
	<line x1="1854.06" y1="830.08" x2="1918.86" y2="830.08" style="stroke:#F0F0F0;stroke-width:9.72"/>
	<line x1="1951.26" y1="830.08" x2="2016.06" y2="830.08" style="stroke:#F0F0F0;stroke-width:9.72"/>
	<line x1="2048.46" y1="830.08" x2="2113.26" y2="830.08" style="stroke:#F0F0F0;stroke-width:9.72"/>
	<line x1="2145.66" y1="830.08" x2="2210.46" y2="830.08" style="stroke:#F0F0F0;stroke-width:9.72"/>
	<line x1="2242.86" y1="830.08" x2="2307.66" y2="830.08" style="stroke:#F0F0F0;stroke-width:9.72"/>
	<line x1="2340.06" y1="830.08" x2="2404.86" y2="830.08" style="stroke:#F0F0F0;stroke-width:9.72"/>
	<line x1="2437.26" y1="830.08" x2="2502.06" y2="830.08" style="stroke:#F0F0F0;stroke-width:9.72"/>
	<line x1="2534.46" y1="830.08" x2="2599.26" y2="830.08" style="stroke:#F0F0F0;stroke-width:9.72"/>
	<line x1="2631.66" y1="830.08" x2="2696.46" y2="830.08" style="stroke:#F0F0F0;stroke-width:9.72"/>
	<line x1="2728.86" y1="830.08" x2="2793.66" y2="830.08" style="stroke:#F0F0F0;stroke-width:9.72"/>
	<line x1="2826.06" y1="830.08" x2="2890.86" y2="830.08" style="stroke:#F0F0F0;stroke-width:9.72"/>
	<line x1="2923.26" y1="830.08" x2="2988.06" y2="830.08" style="stroke:#F0F0F0;stroke-width:9.72"/>
	<line x1="3020.46" y1="830.08" x2="3085.26" y2="830.08" style="stroke:#F0F0F0;stroke-width:9.72"/>
	<line x1="3117.66" y1="830.08" x2="3182.46" y2="830.08" style="stroke:#F0F0F0;stroke-width:9.72"/>
	<line x1="3214.86" y1="830.08" x2="3279.66" y2="830.08" style="stroke:#F0F0F0;stroke-width:9.72"/>
	<line x1="3312.06" y1="830.08" x2="3376.86" y2="830.08" style="stroke:#F0F0F0;stroke-width:9.72"/>
	<line x1="3409.26" y1="830.08" x2="3474.06" y2="830.08" style="stroke:#F0F0F0;stroke-width:9.72"/>
	<line x1="3506.46" y1="830.08" x2="3571.26" y2="830.08" style="stroke:#F0F0F0;stroke-width:9.72"/>
	<line x1="3603.66" y1="830.08" x2="3668.46" y2="830.08" style="stroke:#F0F0F0;stroke-width:9.72"/>
	<line x1="3700.86" y1="830.08" x2="3765.66" y2="830.08" style="stroke:#F0F0F0;stroke-width:9.72"/>
	<line x1="3798.06" y1="830.08" x2="3862.86" y2="830.08" style="stroke:#F0F0F0;stroke-width:9.72"/>
	<line x1="3895.26" y1="830.08" x2="3960.06" y2="830.08" style="stroke:#F0F0F0;stroke-width:9.72"/>
	<line x1="3992.46" y1="830.08" x2="4057.26" y2="830.08" style="stroke:#F0F0F0;stroke-width:9.72"/>
	<line x1="4089.66" y1="830.08" x2="4154.46" y2="830.08" style="stroke:#F0F0F0;stroke-width:9.72"/>
	<line x1="4186.86" y1="830.08" x2="4251.66" y2="830.08" style="stroke:#F0F0F0;stroke-width:9.72"/>
	<line x1="4284.06" y1="830.08" x2="4348.86" y2="830.08" style="stroke:#F0F0F0;stroke-width:9.72"/>
	<line x1="4381.26" y1="830.08" x2="4446.06" y2="830.08" style="stroke:#F0F0F0;stroke-width:9.72"/>
	<line x1="4478.46" y1="830.08" x2="4543.26" y2="830.08" style="stroke:#F0F0F0;stroke-width:9.72"/>
	<line x1="4575.66" y1="830.08" x2="4640.46" y2="830.08" style="stroke:#F0F0F0;stroke-width:9.72"/>
	<line x1="4672.86" y1="830.08" x2="4737.66" y2="830.08" style="stroke:#F0F0F0;stroke-width:9.72"/>
	<line x1="4770.06" y1="830.08" x2="4834.86" y2="830.08" style="stroke:#F0F0F0;stroke-width:9.72"/>
	<line x1="4867.26" y1="830.08" x2="4932.06" y2="830.08" style="stroke:#F0F0F0;stroke-width:9.72"/>
	<line x1="4964.46" y1="830.08" x2="5029.26" y2="830.08" style="stroke:#F0F0F0;stroke-width:9.72"/>
	<line x1="5061.66" y1="830.08" x2="5126.46" y2="830.08" style="stroke:#F0F0F0;stroke-width:9.72"/>
	<line x1="5158.86" y1="830.08" x2="5223.66" y2="830.08" style="stroke:#F0F0F0;stroke-width:9.72"/>
	<line x1="5256.06" y1="830.08" x2="5286.60" y2="830.08" style="stroke:#F0F0F0;stroke-width:9.72"/>
	<line x1="493.26" y1="184.61" x2="558.06" y2="184.61" style="stroke:#F0F0F0;stroke-width:9.72"/>
	<line x1="590.46" y1="184.61" x2="655.26" y2="184.61" style="stroke:#F0F0F0;stroke-width:9.72"/>
	<line x1="687.66" y1="184.61" x2="752.46" y2="184.61" style="stroke:#F0F0F0;stroke-width:9.72"/>
	<line x1="784.86" y1="184.61" x2="849.66" y2="184.61" style="stroke:#F0F0F0;stroke-width:9.72"/>
	<line x1="882.06" y1="184.61" x2="946.86" y2="184.61" style="stroke:#F0F0F0;stroke-width:9.72"/>
	<line x1="979.26" y1="184.61" x2="1044.06" y2="184.61" style="stroke:#F0F0F0;stroke-width:9.72"/>
	<line x1="1076.46" y1="184.61" x2="1141.26" y2="184.61" style="stroke:#F0F0F0;stroke-width:9.72"/>
	<line x1="1173.66" y1="184.61" x2="1238.46" y2="184.61" style="stroke:#F0F0F0;stroke-width:9.72"/>
	<line x1="1270.86" y1="184.61" x2="1335.66" y2="184.61" style="stroke:#F0F0F0;stroke-width:9.72"/>
	<line x1="1368.06" y1="184.61" x2="1432.86" y2="184.61" style="stroke:#F0F0F0;stroke-width:9.72"/>
	<line x1="1465.26" y1="184.61" x2="1530.06" y2="184.61" style="stroke:#F0F0F0;stroke-width:9.72"/>
	<line x1="1562.46" y1="184.61" x2="1627.26" y2="184.61" style="stroke:#F0F0F0;stroke-width:9.72"/>
	<line x1="1659.66" y1="184.61" x2="1724.46" y2="184.61" style="stroke:#F0F0F0;stroke-width:9.72"/>
	<line x1="1756.86" y1="184.61" x2="1821.66" y2="184.61" style="stroke:#F0F0F0;stroke-width:9.72"/>
	<line x1="1854.06" y1="184.61" x2="1918.86" y2="184.61" style="stroke:#F0F0F0;stroke-width:9.72"/>
	<line x1="1951.26" y1="184.61" x2="2016.06" y2="184.61" style="stroke:#F0F0F0;stroke-width:9.72"/>
	<line x1="2048.46" y1="184.61" x2="2113.26" y2="184.61" style="stroke:#F0F0F0;stroke-width:9.72"/>
	<line x1="2145.66" y1="184.61" x2="2210.46" y2="184.61" style="stroke:#F0F0F0;stroke-width:9.72"/>
	<line x1="2242.86" y1="184.61" x2="2307.66" y2="184.61" style="stroke:#F0F0F0;stroke-width:9.72"/>
	<line x1="2340.06" y1="184.61" x2="2404.86" y2="184.61" style="stroke:#F0F0F0;stroke-width:9.72"/>
	<line x1="2437.26" y1="184.61" x2="2502.06" y2="184.61" style="stroke:#F0F0F0;stroke-width:9.72"/>
	<line x1="2534.46" y1="184.61" x2="2599.26" y2="184.61" style="stroke:#F0F0F0;stroke-width:9.72"/>
	<line x1="2631.66" y1="184.61" x2="2696.46" y2="184.61" style="stroke:#F0F0F0;stroke-width:9.72"/>
	<line x1="2728.86" y1="184.61" x2="2793.66" y2="184.61" style="stroke:#F0F0F0;stroke-width:9.72"/>
	<line x1="2826.06" y1="184.61" x2="2890.86" y2="184.61" style="stroke:#F0F0F0;stroke-width:9.72"/>
	<line x1="2923.26" y1="184.61" x2="2988.06" y2="184.61" style="stroke:#F0F0F0;stroke-width:9.72"/>
	<line x1="3020.46" y1="184.61" x2="3085.26" y2="184.61" style="stroke:#F0F0F0;stroke-width:9.72"/>
	<line x1="3117.66" y1="184.61" x2="3182.46" y2="184.61" style="stroke:#F0F0F0;stroke-width:9.72"/>
	<line x1="3214.86" y1="184.61" x2="3279.66" y2="184.61" style="stroke:#F0F0F0;stroke-width:9.72"/>
	<line x1="3312.06" y1="184.61" x2="3376.86" y2="184.61" style="stroke:#F0F0F0;stroke-width:9.72"/>
	<line x1="3409.26" y1="184.61" x2="3474.06" y2="184.61" style="stroke:#F0F0F0;stroke-width:9.72"/>
	<line x1="3506.46" y1="184.61" x2="3571.26" y2="184.61" style="stroke:#F0F0F0;stroke-width:9.72"/>
	<line x1="3603.66" y1="184.61" x2="3668.46" y2="184.61" style="stroke:#F0F0F0;stroke-width:9.72"/>
	<line x1="3700.86" y1="184.61" x2="3765.66" y2="184.61" style="stroke:#F0F0F0;stroke-width:9.72"/>
	<line x1="3798.06" y1="184.61" x2="3862.86" y2="184.61" style="stroke:#F0F0F0;stroke-width:9.72"/>
	<line x1="3895.26" y1="184.61" x2="3960.06" y2="184.61" style="stroke:#F0F0F0;stroke-width:9.72"/>
	<line x1="3992.46" y1="184.61" x2="4057.26" y2="184.61" style="stroke:#F0F0F0;stroke-width:9.72"/>
	<line x1="4089.66" y1="184.61" x2="4154.46" y2="184.61" style="stroke:#F0F0F0;stroke-width:9.72"/>
	<line x1="4186.86" y1="184.61" x2="4251.66" y2="184.61" style="stroke:#F0F0F0;stroke-width:9.72"/>
	<line x1="4284.06" y1="184.61" x2="4348.86" y2="184.61" style="stroke:#F0F0F0;stroke-width:9.72"/>
	<line x1="4381.26" y1="184.61" x2="4446.06" y2="184.61" style="stroke:#F0F0F0;stroke-width:9.72"/>
	<line x1="4478.46" y1="184.61" x2="4543.26" y2="184.61" style="stroke:#F0F0F0;stroke-width:9.72"/>
	<line x1="4575.66" y1="184.61" x2="4640.46" y2="184.61" style="stroke:#F0F0F0;stroke-width:9.72"/>
	<line x1="4672.86" y1="184.61" x2="4737.66" y2="184.61" style="stroke:#F0F0F0;stroke-width:9.72"/>
	<line x1="4770.06" y1="184.61" x2="4834.86" y2="184.61" style="stroke:#F0F0F0;stroke-width:9.72"/>
	<line x1="4867.26" y1="184.61" x2="4932.06" y2="184.61" style="stroke:#F0F0F0;stroke-width:9.72"/>
	<line x1="4964.46" y1="184.61" x2="5029.26" y2="184.61" style="stroke:#F0F0F0;stroke-width:9.72"/>
	<line x1="5061.66" y1="184.61" x2="5126.46" y2="184.61" style="stroke:#F0F0F0;stroke-width:9.72"/>
	<line x1="5158.86" y1="184.61" x2="5223.66" y2="184.61" style="stroke:#F0F0F0;stroke-width:9.72"/>
	<line x1="5256.06" y1="184.61" x2="5286.60" y2="184.61" style="stroke:#F0F0F0;stroke-width:9.72"/>
	<line x1="564.47" y1="2766.66" x2="564.47" y2="2701.86" style="stroke:#F0F0F0;stroke-width:9.72"/>
	<line x1="564.47" y1="2669.46" x2="564.47" y2="2604.66" style="stroke:#F0F0F0;stroke-width:9.72"/>
	<line x1="564.47" y1="2572.26" x2="564.47" y2="2507.46" style="stroke:#F0F0F0;stroke-width:9.72"/>
	<line x1="564.47" y1="2475.06" x2="564.47" y2="2410.26" style="stroke:#F0F0F0;stroke-width:9.72"/>
	<line x1="564.47" y1="2377.86" x2="564.47" y2="2313.06" style="stroke:#F0F0F0;stroke-width:9.72"/>
	<line x1="564.47" y1="2280.66" x2="564.47" y2="2215.86" style="stroke:#F0F0F0;stroke-width:9.72"/>
	<line x1="564.47" y1="2183.46" x2="564.47" y2="2118.66" style="stroke:#F0F0F0;stroke-width:9.72"/>
	<line x1="564.47" y1="2086.26" x2="564.47" y2="2021.46" style="stroke:#F0F0F0;stroke-width:9.72"/>
	<line x1="564.47" y1="1989.06" x2="564.47" y2="1924.26" style="stroke:#F0F0F0;stroke-width:9.72"/>
	<line x1="564.47" y1="1891.86" x2="564.47" y2="1827.06" style="stroke:#F0F0F0;stroke-width:9.72"/>
	<line x1="564.47" y1="1794.66" x2="564.47" y2="1729.86" style="stroke:#F0F0F0;stroke-width:9.72"/>
	<line x1="564.47" y1="1697.46" x2="564.47" y2="1632.66" style="stroke:#F0F0F0;stroke-width:9.72"/>
	<line x1="564.47" y1="1600.26" x2="564.47" y2="1535.46" style="stroke:#F0F0F0;stroke-width:9.72"/>
	<line x1="564.47" y1="1503.06" x2="564.47" y2="1438.26" style="stroke:#F0F0F0;stroke-width:9.72"/>
	<line x1="564.47" y1="1405.86" x2="564.47" y2="1341.06" style="stroke:#F0F0F0;stroke-width:9.72"/>
	<line x1="564.47" y1="1308.66" x2="564.47" y2="1243.86" style="stroke:#F0F0F0;stroke-width:9.72"/>
	<line x1="564.47" y1="1211.46" x2="564.47" y2="1146.66" style="stroke:#F0F0F0;stroke-width:9.72"/>
	<line x1="564.47" y1="1114.26" x2="564.47" y2="1049.46" style="stroke:#F0F0F0;stroke-width:9.72"/>
	<line x1="564.47" y1="1017.06" x2="564.47" y2="952.26" style="stroke:#F0F0F0;stroke-width:9.72"/>
	<line x1="564.47" y1="919.86" x2="564.47" y2="855.06" style="stroke:#F0F0F0;stroke-width:9.72"/>
	<line x1="564.47" y1="822.66" x2="564.47" y2="757.86" style="stroke:#F0F0F0;stroke-width:9.72"/>
	<line x1="564.47" y1="725.46" x2="564.47" y2="660.66" style="stroke:#F0F0F0;stroke-width:9.72"/>
	<line x1="564.47" y1="628.26" x2="564.47" y2="563.46" style="stroke:#F0F0F0;stroke-width:9.72"/>
	<line x1="564.47" y1="531.06" x2="564.47" y2="466.26" style="stroke:#F0F0F0;stroke-width:9.72"/>
	<line x1="564.47" y1="433.86" x2="564.47" y2="369.06" style="stroke:#F0F0F0;stroke-width:9.72"/>
	<line x1="564.47" y1="336.66" x2="564.47" y2="271.86" style="stroke:#F0F0F0;stroke-width:9.72"/>
	<line x1="564.47" y1="239.46" x2="564.47" y2="174.66" style="stroke:#F0F0F0;stroke-width:9.72"/>
	<line x1="564.47" y1="142.26" x2="564.47" y2="113.40" style="stroke:#F0F0F0;stroke-width:9.72"/>
	<line x1="1727.16" y1="2766.66" x2="1727.16" y2="2701.86" style="stroke:#F0F0F0;stroke-width:9.72"/>
	<line x1="1727.16" y1="2669.46" x2="1727.16" y2="2604.66" style="stroke:#F0F0F0;stroke-width:9.72"/>
	<line x1="1727.16" y1="2572.26" x2="1727.16" y2="2507.46" style="stroke:#F0F0F0;stroke-width:9.72"/>
	<line x1="1727.16" y1="2475.06" x2="1727.16" y2="2410.26" style="stroke:#F0F0F0;stroke-width:9.72"/>
	<line x1="1727.16" y1="2377.86" x2="1727.16" y2="2313.06" style="stroke:#F0F0F0;stroke-width:9.72"/>
	<line x1="1727.16" y1="2280.66" x2="1727.16" y2="2215.86" style="stroke:#F0F0F0;stroke-width:9.72"/>
	<line x1="1727.16" y1="2183.46" x2="1727.16" y2="2118.66" style="stroke:#F0F0F0;stroke-width:9.72"/>
	<line x1="1727.16" y1="2086.26" x2="1727.16" y2="2021.46" style="stroke:#F0F0F0;stroke-width:9.72"/>
	<line x1="1727.16" y1="1989.06" x2="1727.16" y2="1924.26" style="stroke:#F0F0F0;stroke-width:9.72"/>
	<line x1="1727.16" y1="1891.86" x2="1727.16" y2="1827.06" style="stroke:#F0F0F0;stroke-width:9.72"/>
	<line x1="1727.16" y1="1794.66" x2="1727.16" y2="1729.86" style="stroke:#F0F0F0;stroke-width:9.72"/>
	<line x1="1727.16" y1="1697.46" x2="1727.16" y2="1632.66" style="stroke:#F0F0F0;stroke-width:9.72"/>
	<line x1="1727.16" y1="1600.26" x2="1727.16" y2="1535.46" style="stroke:#F0F0F0;stroke-width:9.72"/>
	<line x1="1727.16" y1="1503.06" x2="1727.16" y2="1438.26" style="stroke:#F0F0F0;stroke-width:9.72"/>
	<line x1="1727.16" y1="1405.86" x2="1727.16" y2="1341.06" style="stroke:#F0F0F0;stroke-width:9.72"/>
	<line x1="1727.16" y1="1308.66" x2="1727.16" y2="1243.86" style="stroke:#F0F0F0;stroke-width:9.72"/>
	<line x1="1727.16" y1="1211.46" x2="1727.16" y2="1146.66" style="stroke:#F0F0F0;stroke-width:9.72"/>
	<line x1="1727.16" y1="1114.26" x2="1727.16" y2="1049.46" style="stroke:#F0F0F0;stroke-width:9.72"/>
	<line x1="1727.16" y1="1017.06" x2="1727.16" y2="952.26" style="stroke:#F0F0F0;stroke-width:9.72"/>
	<line x1="1727.16" y1="919.86" x2="1727.16" y2="855.06" style="stroke:#F0F0F0;stroke-width:9.72"/>
	<line x1="1727.16" y1="822.66" x2="1727.16" y2="757.86" style="stroke:#F0F0F0;stroke-width:9.72"/>
	<line x1="1727.16" y1="725.46" x2="1727.16" y2="660.66" style="stroke:#F0F0F0;stroke-width:9.72"/>
	<line x1="1727.16" y1="628.26" x2="1727.16" y2="563.46" style="stroke:#F0F0F0;stroke-width:9.72"/>
	<line x1="1727.16" y1="531.06" x2="1727.16" y2="466.26" style="stroke:#F0F0F0;stroke-width:9.72"/>
	<line x1="1727.16" y1="433.86" x2="1727.16" y2="369.06" style="stroke:#F0F0F0;stroke-width:9.72"/>
	<line x1="1727.16" y1="336.66" x2="1727.16" y2="271.86" style="stroke:#F0F0F0;stroke-width:9.72"/>
	<line x1="1727.16" y1="239.46" x2="1727.16" y2="174.66" style="stroke:#F0F0F0;stroke-width:9.72"/>
	<line x1="1727.16" y1="142.26" x2="1727.16" y2="113.40" style="stroke:#F0F0F0;stroke-width:9.72"/>
	<line x1="2889.84" y1="2766.66" x2="2889.84" y2="2701.86" style="stroke:#F0F0F0;stroke-width:9.72"/>
	<line x1="2889.84" y1="2669.46" x2="2889.84" y2="2604.66" style="stroke:#F0F0F0;stroke-width:9.72"/>
	<line x1="2889.84" y1="2572.26" x2="2889.84" y2="2507.46" style="stroke:#F0F0F0;stroke-width:9.72"/>
	<line x1="2889.84" y1="2475.06" x2="2889.84" y2="2410.26" style="stroke:#F0F0F0;stroke-width:9.72"/>
	<line x1="2889.84" y1="2377.86" x2="2889.84" y2="2313.06" style="stroke:#F0F0F0;stroke-width:9.72"/>
	<line x1="2889.84" y1="2280.66" x2="2889.84" y2="2215.86" style="stroke:#F0F0F0;stroke-width:9.72"/>
	<line x1="2889.84" y1="2183.46" x2="2889.84" y2="2118.66" style="stroke:#F0F0F0;stroke-width:9.72"/>
	<line x1="2889.84" y1="2086.26" x2="2889.84" y2="2021.46" style="stroke:#F0F0F0;stroke-width:9.72"/>
	<line x1="2889.84" y1="1989.06" x2="2889.84" y2="1924.26" style="stroke:#F0F0F0;stroke-width:9.72"/>
	<line x1="2889.84" y1="1891.86" x2="2889.84" y2="1827.06" style="stroke:#F0F0F0;stroke-width:9.72"/>
	<line x1="2889.84" y1="1794.66" x2="2889.84" y2="1729.86" style="stroke:#F0F0F0;stroke-width:9.72"/>
	<line x1="2889.84" y1="1697.46" x2="2889.84" y2="1632.66" style="stroke:#F0F0F0;stroke-width:9.72"/>
	<line x1="2889.84" y1="1600.26" x2="2889.84" y2="1535.46" style="stroke:#F0F0F0;stroke-width:9.72"/>
	<line x1="2889.84" y1="1503.06" x2="2889.84" y2="1438.26" style="stroke:#F0F0F0;stroke-width:9.72"/>
	<line x1="2889.84" y1="1405.86" x2="2889.84" y2="1341.06" style="stroke:#F0F0F0;stroke-width:9.72"/>
	<line x1="2889.84" y1="1308.66" x2="2889.84" y2="1243.86" style="stroke:#F0F0F0;stroke-width:9.72"/>
	<line x1="2889.84" y1="1211.46" x2="2889.84" y2="1146.66" style="stroke:#F0F0F0;stroke-width:9.72"/>
	<line x1="2889.84" y1="1114.26" x2="2889.84" y2="1049.46" style="stroke:#F0F0F0;stroke-width:9.72"/>
	<line x1="2889.84" y1="1017.06" x2="2889.84" y2="952.26" style="stroke:#F0F0F0;stroke-width:9.72"/>
	<line x1="2889.84" y1="919.86" x2="2889.84" y2="855.06" style="stroke:#F0F0F0;stroke-width:9.72"/>
	<line x1="2889.84" y1="822.66" x2="2889.84" y2="757.86" style="stroke:#F0F0F0;stroke-width:9.72"/>
	<line x1="2889.84" y1="725.46" x2="2889.84" y2="660.66" style="stroke:#F0F0F0;stroke-width:9.72"/>
	<line x1="2889.84" y1="628.26" x2="2889.84" y2="563.46" style="stroke:#F0F0F0;stroke-width:9.72"/>
	<line x1="2889.84" y1="531.06" x2="2889.84" y2="466.26" style="stroke:#F0F0F0;stroke-width:9.72"/>
	<line x1="2889.84" y1="433.86" x2="2889.84" y2="369.06" style="stroke:#F0F0F0;stroke-width:9.72"/>
	<line x1="2889.84" y1="336.66" x2="2889.84" y2="271.86" style="stroke:#F0F0F0;stroke-width:9.72"/>
	<line x1="2889.84" y1="239.46" x2="2889.84" y2="174.66" style="stroke:#F0F0F0;stroke-width:9.72"/>
	<line x1="2889.84" y1="142.26" x2="2889.84" y2="113.40" style="stroke:#F0F0F0;stroke-width:9.72"/>
	<line x1="4052.53" y1="2766.66" x2="4052.53" y2="2701.86" style="stroke:#F0F0F0;stroke-width:9.72"/>
	<line x1="4052.53" y1="2669.46" x2="4052.53" y2="2604.66" style="stroke:#F0F0F0;stroke-width:9.72"/>
	<line x1="4052.53" y1="2572.26" x2="4052.53" y2="2507.46" style="stroke:#F0F0F0;stroke-width:9.72"/>
	<line x1="4052.53" y1="2475.06" x2="4052.53" y2="2410.26" style="stroke:#F0F0F0;stroke-width:9.72"/>
	<line x1="4052.53" y1="2377.86" x2="4052.53" y2="2313.06" style="stroke:#F0F0F0;stroke-width:9.72"/>
	<line x1="4052.53" y1="2280.66" x2="4052.53" y2="2215.86" style="stroke:#F0F0F0;stroke-width:9.72"/>
	<line x1="4052.53" y1="2183.46" x2="4052.53" y2="2118.66" style="stroke:#F0F0F0;stroke-width:9.72"/>
	<line x1="4052.53" y1="2086.26" x2="4052.53" y2="2021.46" style="stroke:#F0F0F0;stroke-width:9.72"/>
	<line x1="4052.53" y1="1989.06" x2="4052.53" y2="1924.26" style="stroke:#F0F0F0;stroke-width:9.72"/>
	<line x1="4052.53" y1="1891.86" x2="4052.53" y2="1827.06" style="stroke:#F0F0F0;stroke-width:9.72"/>
	<line x1="4052.53" y1="1794.66" x2="4052.53" y2="1729.86" style="stroke:#F0F0F0;stroke-width:9.72"/>
	<line x1="4052.53" y1="1697.46" x2="4052.53" y2="1632.66" style="stroke:#F0F0F0;stroke-width:9.72"/>
	<line x1="4052.53" y1="1600.26" x2="4052.53" y2="1535.46" style="stroke:#F0F0F0;stroke-width:9.72"/>
	<line x1="4052.53" y1="1503.06" x2="4052.53" y2="1438.26" style="stroke:#F0F0F0;stroke-width:9.72"/>
	<line x1="4052.53" y1="1405.86" x2="4052.53" y2="1341.06" style="stroke:#F0F0F0;stroke-width:9.72"/>
	<line x1="4052.53" y1="1308.66" x2="4052.53" y2="1243.86" style="stroke:#F0F0F0;stroke-width:9.72"/>
	<line x1="4052.53" y1="1211.46" x2="4052.53" y2="1146.66" style="stroke:#F0F0F0;stroke-width:9.72"/>
	<line x1="4052.53" y1="1114.26" x2="4052.53" y2="1049.46" style="stroke:#F0F0F0;stroke-width:9.72"/>
	<line x1="4052.53" y1="1017.06" x2="4052.53" y2="952.26" style="stroke:#F0F0F0;stroke-width:9.72"/>
	<line x1="4052.53" y1="919.86" x2="4052.53" y2="855.06" style="stroke:#F0F0F0;stroke-width:9.72"/>
	<line x1="4052.53" y1="822.66" x2="4052.53" y2="757.86" style="stroke:#F0F0F0;stroke-width:9.72"/>
	<line x1="4052.53" y1="725.46" x2="4052.53" y2="660.66" style="stroke:#F0F0F0;stroke-width:9.72"/>
	<line x1="4052.53" y1="628.26" x2="4052.53" y2="563.46" style="stroke:#F0F0F0;stroke-width:9.72"/>
	<line x1="4052.53" y1="531.06" x2="4052.53" y2="466.26" style="stroke:#F0F0F0;stroke-width:9.72"/>
	<line x1="4052.53" y1="433.86" x2="4052.53" y2="369.06" style="stroke:#F0F0F0;stroke-width:9.72"/>
	<line x1="4052.53" y1="336.66" x2="4052.53" y2="271.86" style="stroke:#F0F0F0;stroke-width:9.72"/>
	<line x1="4052.53" y1="239.46" x2="4052.53" y2="174.66" style="stroke:#F0F0F0;stroke-width:9.72"/>
	<line x1="4052.53" y1="142.26" x2="4052.53" y2="113.40" style="stroke:#F0F0F0;stroke-width:9.72"/>
	<line x1="5215.39" y1="2766.66" x2="5215.39" y2="2701.86" style="stroke:#F0F0F0;stroke-width:9.72"/>
	<line x1="5215.39" y1="2669.46" x2="5215.39" y2="2604.66" style="stroke:#F0F0F0;stroke-width:9.72"/>
	<line x1="5215.39" y1="2572.26" x2="5215.39" y2="2507.46" style="stroke:#F0F0F0;stroke-width:9.72"/>
	<line x1="5215.39" y1="2475.06" x2="5215.39" y2="2410.26" style="stroke:#F0F0F0;stroke-width:9.72"/>
	<line x1="5215.39" y1="2377.86" x2="5215.39" y2="2313.06" style="stroke:#F0F0F0;stroke-width:9.72"/>
	<line x1="5215.39" y1="2280.66" x2="5215.39" y2="2215.86" style="stroke:#F0F0F0;stroke-width:9.72"/>
	<line x1="5215.39" y1="2183.46" x2="5215.39" y2="2118.66" style="stroke:#F0F0F0;stroke-width:9.72"/>
	<line x1="5215.39" y1="2086.26" x2="5215.39" y2="2021.46" style="stroke:#F0F0F0;stroke-width:9.72"/>
	<line x1="5215.39" y1="1989.06" x2="5215.39" y2="1924.26" style="stroke:#F0F0F0;stroke-width:9.72"/>
	<line x1="5215.39" y1="1891.86" x2="5215.39" y2="1827.06" style="stroke:#F0F0F0;stroke-width:9.72"/>
	<line x1="5215.39" y1="1794.66" x2="5215.39" y2="1729.86" style="stroke:#F0F0F0;stroke-width:9.72"/>
	<line x1="5215.39" y1="1697.46" x2="5215.39" y2="1632.66" style="stroke:#F0F0F0;stroke-width:9.72"/>
	<line x1="5215.39" y1="1600.26" x2="5215.39" y2="1535.46" style="stroke:#F0F0F0;stroke-width:9.72"/>
	<line x1="5215.39" y1="1503.06" x2="5215.39" y2="1438.26" style="stroke:#F0F0F0;stroke-width:9.72"/>
	<line x1="5215.39" y1="1405.86" x2="5215.39" y2="1341.06" style="stroke:#F0F0F0;stroke-width:9.72"/>
	<line x1="5215.39" y1="1308.66" x2="5215.39" y2="1243.86" style="stroke:#F0F0F0;stroke-width:9.72"/>
	<line x1="5215.39" y1="1211.46" x2="5215.39" y2="1146.66" style="stroke:#F0F0F0;stroke-width:9.72"/>
	<line x1="5215.39" y1="1114.26" x2="5215.39" y2="1049.46" style="stroke:#F0F0F0;stroke-width:9.72"/>
	<line x1="5215.39" y1="1017.06" x2="5215.39" y2="952.26" style="stroke:#F0F0F0;stroke-width:9.72"/>
	<line x1="5215.39" y1="919.86" x2="5215.39" y2="855.06" style="stroke:#F0F0F0;stroke-width:9.72"/>
	<line x1="5215.39" y1="822.66" x2="5215.39" y2="757.86" style="stroke:#F0F0F0;stroke-width:9.72"/>
	<line x1="5215.39" y1="725.46" x2="5215.39" y2="660.66" style="stroke:#F0F0F0;stroke-width:9.72"/>
	<line x1="5215.39" y1="628.26" x2="5215.39" y2="563.46" style="stroke:#F0F0F0;stroke-width:9.72"/>
	<line x1="5215.39" y1="531.06" x2="5215.39" y2="466.26" style="stroke:#F0F0F0;stroke-width:9.72"/>
	<line x1="5215.39" y1="433.86" x2="5215.39" y2="369.06" style="stroke:#F0F0F0;stroke-width:9.72"/>
	<line x1="5215.39" y1="336.66" x2="5215.39" y2="271.86" style="stroke:#F0F0F0;stroke-width:9.72"/>
	<line x1="5215.39" y1="239.46" x2="5215.39" y2="174.66" style="stroke:#F0F0F0;stroke-width:9.72"/>
	<line x1="5215.39" y1="142.26" x2="5215.39" y2="113.40" style="stroke:#F0F0F0;stroke-width:9.72"/>
	<rect x="1104.97" y="2759.74" width="95.34" height="6.92" style="fill:#3191FF"/>
	<rect x="1107.41" y="2762.17" width="90.48" height="2.06" style="fill:none;stroke:#5FAAFF;stroke-width:4.86"/>
	<rect x="1200.32" y="2763.11" width="95.34" height="3.54" style="fill:#3191FF"/>
	<rect x="1202.75" y="2764.23" width="90.48" height="1.32" style="fill:none;stroke:#5FAAFF;stroke-width:4.86"/>
	<rect x="1582.03" y="2756.19" width="95.34" height="10.46" style="fill:#3191FF"/>
	<rect x="1584.46" y="2758.62" width="90.48" height="5.60" style="fill:none;stroke:#5FAAFF;stroke-width:4.86"/>
	<rect x="1772.89" y="2763.11" width="95.34" height="3.54" style="fill:#3191FF"/>
	<rect x="1775.32" y="2764.23" width="90.48" height="1.32" style="fill:none;stroke:#5FAAFF;stroke-width:4.86"/>
	<rect x="1963.58" y="2759.74" width="95.51" height="6.92" style="fill:#3191FF"/>
	<rect x="1966.01" y="2762.17" width="90.65" height="2.06" style="fill:none;stroke:#5FAAFF;stroke-width:4.86"/>
	<rect x="2059.09" y="2745.90" width="95.34" height="20.76" style="fill:#3191FF"/>
	<rect x="2061.52" y="2748.33" width="90.48" height="15.90" style="fill:none;stroke:#5FAAFF;stroke-width:4.86"/>
	<rect x="2154.43" y="2756.19" width="95.51" height="10.46" style="fill:#3191FF"/>
	<rect x="2156.86" y="2758.62" width="90.65" height="5.60" style="fill:none;stroke:#5FAAFF;stroke-width:4.86"/>
	<rect x="2249.94" y="2735.44" width="95.34" height="31.22" style="fill:#3191FF"/>
	<rect x="2252.37" y="2737.87" width="90.48" height="26.36" style="fill:none;stroke:#5FAAFF;stroke-width:4.86"/>
	<rect x="2345.29" y="2742.36" width="95.51" height="24.30" style="fill:#3191FF"/>
	<rect x="2347.72" y="2744.79" width="90.65" height="19.44" style="fill:none;stroke:#5FAAFF;stroke-width:4.86"/>
	<rect x="2440.80" y="2718.23" width="95.34" height="48.43" style="fill:#3191FF"/>
	<rect x="2443.23" y="2720.66" width="90.48" height="43.57" style="fill:none;stroke:#5FAAFF;stroke-width:4.86"/>
	<rect x="2536.14" y="2693.93" width="95.34" height="72.73" style="fill:#3191FF"/>
	<rect x="2538.57" y="2696.36" width="90.48" height="67.87" style="fill:none;stroke:#5FAAFF;stroke-width:4.86"/>
	<rect x="2631.49" y="2617.82" width="95.51" height="148.84" style="fill:#3191FF"/>
	<rect x="2633.92" y="2620.25" width="90.65" height="143.98" style="fill:none;stroke:#5FAAFF;stroke-width:4.86"/>
	<rect x="2727.00" y="2524.50" width="95.34" height="242.16" style="fill:#3191FF"/>
	<rect x="2729.43" y="2526.93" width="90.48" height="237.30" style="fill:none;stroke:#5FAAFF;stroke-width:4.86"/>
	<rect x="2822.34" y="2365.37" width="95.51" height="401.29" style="fill:#3191FF"/>
	<rect x="2824.77" y="2367.80" width="90.65" height="396.43" style="fill:none;stroke:#5FAAFF;stroke-width:4.86"/>
	<rect x="2917.86" y="2258.21" width="95.34" height="508.44" style="fill:#3191FF"/>
	<rect x="2920.29" y="2260.64" width="90.48" height="503.58" style="fill:none;stroke:#5FAAFF;stroke-width:4.86"/>
	<rect x="3013.20" y="1787.91" width="95.51" height="978.75" style="fill:#3191FF"/>
	<rect x="3015.63" y="1790.34" width="90.65" height="973.89" style="fill:none;stroke:#5FAAFF;stroke-width:4.86"/>
	<rect x="3108.71" y="1732.56" width="95.34" height="1034.10" style="fill:#3191FF"/>
	<rect x="3111.14" y="1734.99" width="90.48" height="1029.24" style="fill:none;stroke:#5FAAFF;stroke-width:4.86"/>
	<rect x="3204.06" y="1393.71" width="95.34" height="1372.95" style="fill:#3191FF"/>
	<rect x="3206.49" y="1396.14" width="90.48" height="1368.09" style="fill:none;stroke:#5FAAFF;stroke-width:4.86"/>
	<rect x="3299.40" y="1058.23" width="95.51" height="1708.43" style="fill:#3191FF"/>
	<rect x="3301.83" y="1060.66" width="90.65" height="1703.57" style="fill:none;stroke:#5FAAFF;stroke-width:4.86"/>
	<rect x="3394.91" y="816.07" width="95.34" height="1950.58" style="fill:#3191FF"/>
	<rect x="3397.34" y="818.50" width="90.48" height="1945.72" style="fill:none;stroke:#5FAAFF;stroke-width:4.86"/>
	<rect x="3490.26" y="674.32" width="95.51" height="2092.33" style="fill:#3191FF"/>
	<rect x="3492.69" y="676.75" width="90.65" height="2087.47" style="fill:none;stroke:#5FAAFF;stroke-width:4.86"/>
	<rect x="3585.77" y="504.90" width="95.34" height="2261.76" style="fill:#3191FF"/>
	<rect x="3588.20" y="507.33" width="90.48" height="2256.90" style="fill:none;stroke:#5FAAFF;stroke-width:4.86"/>
	<rect x="3681.11" y="757.35" width="95.51" height="2009.31" style="fill:#3191FF"/>
	<rect x="3683.54" y="759.78" width="90.65" height="2004.45" style="fill:none;stroke:#5FAAFF;stroke-width:4.86"/>
	<rect x="3776.63" y="957.82" width="95.34" height="1808.83" style="fill:#3191FF"/>
	<rect x="3779.06" y="960.25" width="90.48" height="1803.97" style="fill:none;stroke:#5FAAFF;stroke-width:4.86"/>
	<rect x="3871.97" y="1459.35" width="95.34" height="1307.31" style="fill:#3191FF"/>
	<rect x="3874.40" y="1461.78" width="90.48" height="1302.45" style="fill:none;stroke:#5FAAFF;stroke-width:4.86"/>
	<rect x="3967.31" y="1950.41" width="95.51" height="816.24" style="fill:#3191FF"/>
	<rect x="3969.74" y="1952.84" width="90.65" height="811.38" style="fill:none;stroke:#5FAAFF;stroke-width:4.86"/>
	<rect x="4062.83" y="2341.24" width="95.34" height="425.42" style="fill:#3191FF"/>
	<rect x="4065.25" y="2343.67" width="90.48" height="420.56" style="fill:none;stroke:#5FAAFF;stroke-width:4.86"/>
	<rect x="4158.17" y="2583.39" width="95.51" height="183.26" style="fill:#3191FF"/>
	<rect x="4160.60" y="2585.82" width="90.65" height="178.40" style="fill:none;stroke:#5FAAFF;stroke-width:4.86"/>
	<rect x="4253.68" y="2669.79" width="95.34" height="96.86" style="fill:#3191FF"/>
	<rect x="4256.11" y="2672.22" width="90.48" height="92.00" style="fill:none;stroke:#5FAAFF;stroke-width:4.86"/>
	<rect x="4349.02" y="2714.68" width="95.51" height="51.97" style="fill:#3191FF"/>
	<rect x="4351.46" y="2717.11" width="90.65" height="47.11" style="fill:none;stroke:#5FAAFF;stroke-width:4.86"/>
	<rect x="4444.54" y="2745.90" width="95.34" height="20.76" style="fill:#3191FF"/>
	<rect x="4446.97" y="2748.33" width="90.48" height="15.90" style="fill:none;stroke:#5FAAFF;stroke-width:4.86"/>
	<rect x="4539.88" y="2759.74" width="95.34" height="6.92" style="fill:#3191FF"/>
	<rect x="4542.31" y="2762.17" width="90.48" height="2.06" style="fill:none;stroke:#5FAAFF;stroke-width:4.86"/>
	<line x1="493.26" y1="2766.66" x2="493.26" y2="113.40" style="stroke:#000000;stroke-width:6.48"/>
	<line x1="493.26" y1="2766.66" x2="448.20" y2="2766.66" style="stroke:#000000;stroke-width:6.48"/>
	<text x="425.76" y="2806.09" style="font-family:'Helvetica';font-size:112.56px;fill:#000000" text-anchor="end">0</text>
	<line x1="493.26" y1="2121.19" x2="448.20" y2="2121.19" style="stroke:#000000;stroke-width:6.48"/>
	<text x="425.76" y="2160.62" style="font-family:'Helvetica';font-size:112.56px;fill:#000000" text-anchor="end">.2</text>
	<line x1="493.26" y1="1475.72" x2="448.20" y2="1475.72" style="stroke:#000000;stroke-width:6.48"/>
	<text x="425.76" y="1515.16" style="font-family:'Helvetica';font-size:112.56px;fill:#000000" text-anchor="end">.4</text>
	<line x1="493.26" y1="830.08" x2="448.20" y2="830.08" style="stroke:#000000;stroke-width:6.48"/>
	<text x="425.76" y="869.52" style="font-family:'Helvetica';font-size:112.56px;fill:#000000" text-anchor="end">.6</text>
	<line x1="493.26" y1="184.61" x2="448.20" y2="184.61" style="stroke:#000000;stroke-width:6.48"/>
	<text x="425.76" y="224.05" style="font-family:'Helvetica';font-size:112.56px;fill:#000000" text-anchor="end">.8</text>
	<text x="214.55" y="1439.94" style="font-family:'Helvetica';font-size:112.56px;fill:#000000" transform="rotate(-90 214.55,1439.94)" text-anchor="middle">Density</text>
	<line x1="493.26" y1="2766.66" x2="5286.60" y2="2766.66" style="stroke:#000000;stroke-width:6.48"/>
	<line x1="564.47" y1="2766.66" x2="564.47" y2="2811.54" style="stroke:#000000;stroke-width:6.48"/>
	<text x="564.47" y="2912.86" style="font-family:'Helvetica';font-size:112.56px;fill:#000000" text-anchor="middle">2</text>
	<line x1="1727.16" y1="2766.66" x2="1727.16" y2="2811.54" style="stroke:#000000;stroke-width:6.48"/>
	<text x="1727.16" y="2912.86" style="font-family:'Helvetica';font-size:112.56px;fill:#000000" text-anchor="middle">4</text>
	<line x1="2889.84" y1="2766.66" x2="2889.84" y2="2811.54" style="stroke:#000000;stroke-width:6.48"/>
	<text x="2889.84" y="2912.86" style="font-family:'Helvetica';font-size:112.56px;fill:#000000" text-anchor="middle">6</text>
	<line x1="4052.53" y1="2766.66" x2="4052.53" y2="2811.54" style="stroke:#000000;stroke-width:6.48"/>
	<text x="4052.53" y="2912.86" style="font-family:'Helvetica';font-size:112.56px;fill:#000000" text-anchor="middle">8</text>
	<line x1="5215.39" y1="2766.66" x2="5215.39" y2="2811.54" style="stroke:#000000;stroke-width:6.48"/>
	<text x="5215.39" y="2912.86" style="font-family:'Helvetica';font-size:112.56px;fill:#000000" text-anchor="middle">10</text>
	<text x="2889.84" y="3070.31" style="font-family:'Helvetica';font-size:112.56px;fill:#000000" text-anchor="middle">lgdollarel</text>
</svg>
