<?xml version="1.0" encoding="UTF-8" standalone="no"?>
<!-- This is a Stata 18.0 generated SVG file (http://www.stata.com) -->

<svg version="1.1" width="7.500in" height="4.500in" viewBox="0 0 5400 3240" xmlns="http://www.w3.org/2000/svg" xmlns:xlink="http://www.w3.org/1999/xlink">
	<desc>Stata Graph - Graph</desc>
	<rect x="0" y="0" width="5400" height="3240" style="fill:#FFFFFF;stroke:none"/>
	<rect x="0.00" y="0.00" width="5400.00" height="3240.00" style="fill:#FFFFFF"/>
	<rect x="3.24" y="3.24" width="5393.52" height="3233.52" style="fill:none;stroke:#FFFFFF;stroke-width:6.48"/>
	<rect x="786.21" y="113.40" width="4500.39" height="2653.26" style="fill:#FFFFFF"/>
	<rect x="789.45" y="116.64" width="4493.91" height="2646.78" style="fill:none;stroke:#FFFFFF;stroke-width:6.48"/>
	<line x1="786.21" y1="2766.66" x2="851.01" y2="2766.66" style="stroke:#F0F0F0;stroke-width:9.72"/>
	<line x1="883.41" y1="2766.66" x2="948.21" y2="2766.66" style="stroke:#F0F0F0;stroke-width:9.72"/>
	<line x1="980.61" y1="2766.66" x2="1045.41" y2="2766.66" style="stroke:#F0F0F0;stroke-width:9.72"/>
	<line x1="1077.81" y1="2766.66" x2="1142.61" y2="2766.66" style="stroke:#F0F0F0;stroke-width:9.72"/>
	<line x1="1175.01" y1="2766.66" x2="1239.81" y2="2766.66" style="stroke:#F0F0F0;stroke-width:9.72"/>
	<line x1="1272.21" y1="2766.66" x2="1337.01" y2="2766.66" style="stroke:#F0F0F0;stroke-width:9.72"/>
	<line x1="1369.41" y1="2766.66" x2="1434.21" y2="2766.66" style="stroke:#F0F0F0;stroke-width:9.72"/>
	<line x1="1466.61" y1="2766.66" x2="1531.41" y2="2766.66" style="stroke:#F0F0F0;stroke-width:9.72"/>
	<line x1="1563.81" y1="2766.66" x2="1628.61" y2="2766.66" style="stroke:#F0F0F0;stroke-width:9.72"/>
	<line x1="1661.01" y1="2766.66" x2="1725.81" y2="2766.66" style="stroke:#F0F0F0;stroke-width:9.72"/>
	<line x1="1758.21" y1="2766.66" x2="1823.01" y2="2766.66" style="stroke:#F0F0F0;stroke-width:9.72"/>
	<line x1="1855.41" y1="2766.66" x2="1920.21" y2="2766.66" style="stroke:#F0F0F0;stroke-width:9.72"/>
	<line x1="1952.61" y1="2766.66" x2="2017.41" y2="2766.66" style="stroke:#F0F0F0;stroke-width:9.72"/>
	<line x1="2049.81" y1="2766.66" x2="2114.61" y2="2766.66" style="stroke:#F0F0F0;stroke-width:9.72"/>
	<line x1="2147.01" y1="2766.66" x2="2211.81" y2="2766.66" style="stroke:#F0F0F0;stroke-width:9.72"/>
	<line x1="2244.21" y1="2766.66" x2="2309.01" y2="2766.66" style="stroke:#F0F0F0;stroke-width:9.72"/>
	<line x1="2341.41" y1="2766.66" x2="2406.21" y2="2766.66" style="stroke:#F0F0F0;stroke-width:9.72"/>
	<line x1="2438.61" y1="2766.66" x2="2503.41" y2="2766.66" style="stroke:#F0F0F0;stroke-width:9.72"/>
	<line x1="2535.81" y1="2766.66" x2="2600.61" y2="2766.66" style="stroke:#F0F0F0;stroke-width:9.72"/>
	<line x1="2633.01" y1="2766.66" x2="2697.81" y2="2766.66" style="stroke:#F0F0F0;stroke-width:9.72"/>
	<line x1="2730.21" y1="2766.66" x2="2795.01" y2="2766.66" style="stroke:#F0F0F0;stroke-width:9.72"/>
	<line x1="2827.41" y1="2766.66" x2="2892.21" y2="2766.66" style="stroke:#F0F0F0;stroke-width:9.72"/>
	<line x1="2924.61" y1="2766.66" x2="2989.41" y2="2766.66" style="stroke:#F0F0F0;stroke-width:9.72"/>
	<line x1="3021.81" y1="2766.66" x2="3086.61" y2="2766.66" style="stroke:#F0F0F0;stroke-width:9.72"/>
	<line x1="3119.01" y1="2766.66" x2="3183.81" y2="2766.66" style="stroke:#F0F0F0;stroke-width:9.72"/>
	<line x1="3216.21" y1="2766.66" x2="3281.01" y2="2766.66" style="stroke:#F0F0F0;stroke-width:9.72"/>
	<line x1="3313.41" y1="2766.66" x2="3378.21" y2="2766.66" style="stroke:#F0F0F0;stroke-width:9.72"/>
	<line x1="3410.61" y1="2766.66" x2="3475.41" y2="2766.66" style="stroke:#F0F0F0;stroke-width:9.72"/>
	<line x1="3507.81" y1="2766.66" x2="3572.61" y2="2766.66" style="stroke:#F0F0F0;stroke-width:9.72"/>
	<line x1="3605.01" y1="2766.66" x2="3669.81" y2="2766.66" style="stroke:#F0F0F0;stroke-width:9.72"/>
	<line x1="3702.21" y1="2766.66" x2="3767.01" y2="2766.66" style="stroke:#F0F0F0;stroke-width:9.72"/>
	<line x1="3799.41" y1="2766.66" x2="3864.21" y2="2766.66" style="stroke:#F0F0F0;stroke-width:9.72"/>
	<line x1="3896.61" y1="2766.66" x2="3961.41" y2="2766.66" style="stroke:#F0F0F0;stroke-width:9.72"/>
	<line x1="3993.81" y1="2766.66" x2="4058.61" y2="2766.66" style="stroke:#F0F0F0;stroke-width:9.72"/>
	<line x1="4091.01" y1="2766.66" x2="4155.81" y2="2766.66" style="stroke:#F0F0F0;stroke-width:9.72"/>
	<line x1="4188.21" y1="2766.66" x2="4253.01" y2="2766.66" style="stroke:#F0F0F0;stroke-width:9.72"/>
	<line x1="4285.41" y1="2766.66" x2="4350.21" y2="2766.66" style="stroke:#F0F0F0;stroke-width:9.72"/>
	<line x1="4382.61" y1="2766.66" x2="4447.41" y2="2766.66" style="stroke:#F0F0F0;stroke-width:9.72"/>
	<line x1="4479.81" y1="2766.66" x2="4544.61" y2="2766.66" style="stroke:#F0F0F0;stroke-width:9.72"/>
	<line x1="4577.01" y1="2766.66" x2="4641.81" y2="2766.66" style="stroke:#F0F0F0;stroke-width:9.72"/>
	<line x1="4674.21" y1="2766.66" x2="4739.01" y2="2766.66" style="stroke:#F0F0F0;stroke-width:9.72"/>
	<line x1="4771.41" y1="2766.66" x2="4836.21" y2="2766.66" style="stroke:#F0F0F0;stroke-width:9.72"/>
	<line x1="4868.61" y1="2766.66" x2="4933.41" y2="2766.66" style="stroke:#F0F0F0;stroke-width:9.72"/>
	<line x1="4965.81" y1="2766.66" x2="5030.61" y2="2766.66" style="stroke:#F0F0F0;stroke-width:9.72"/>
	<line x1="5063.01" y1="2766.66" x2="5127.81" y2="2766.66" style="stroke:#F0F0F0;stroke-width:9.72"/>
	<line x1="5160.21" y1="2766.66" x2="5225.01" y2="2766.66" style="stroke:#F0F0F0;stroke-width:9.72"/>
	<line x1="5257.41" y1="2766.66" x2="5286.60" y2="2766.66" style="stroke:#F0F0F0;stroke-width:9.72"/>
	<line x1="786.21" y1="1906.03" x2="851.01" y2="1906.03" style="stroke:#F0F0F0;stroke-width:9.72"/>
	<line x1="883.41" y1="1906.03" x2="948.21" y2="1906.03" style="stroke:#F0F0F0;stroke-width:9.72"/>
	<line x1="980.61" y1="1906.03" x2="1045.41" y2="1906.03" style="stroke:#F0F0F0;stroke-width:9.72"/>
	<line x1="1077.81" y1="1906.03" x2="1142.61" y2="1906.03" style="stroke:#F0F0F0;stroke-width:9.72"/>
	<line x1="1175.01" y1="1906.03" x2="1239.81" y2="1906.03" style="stroke:#F0F0F0;stroke-width:9.72"/>
	<line x1="1272.21" y1="1906.03" x2="1337.01" y2="1906.03" style="stroke:#F0F0F0;stroke-width:9.72"/>
	<line x1="1369.41" y1="1906.03" x2="1434.21" y2="1906.03" style="stroke:#F0F0F0;stroke-width:9.72"/>
	<line x1="1466.61" y1="1906.03" x2="1531.41" y2="1906.03" style="stroke:#F0F0F0;stroke-width:9.72"/>
	<line x1="1563.81" y1="1906.03" x2="1628.61" y2="1906.03" style="stroke:#F0F0F0;stroke-width:9.72"/>
	<line x1="1661.01" y1="1906.03" x2="1725.81" y2="1906.03" style="stroke:#F0F0F0;stroke-width:9.72"/>
	<line x1="1758.21" y1="1906.03" x2="1823.01" y2="1906.03" style="stroke:#F0F0F0;stroke-width:9.72"/>
	<line x1="1855.41" y1="1906.03" x2="1920.21" y2="1906.03" style="stroke:#F0F0F0;stroke-width:9.72"/>
	<line x1="1952.61" y1="1906.03" x2="2017.41" y2="1906.03" style="stroke:#F0F0F0;stroke-width:9.72"/>
	<line x1="2049.81" y1="1906.03" x2="2114.61" y2="1906.03" style="stroke:#F0F0F0;stroke-width:9.72"/>
	<line x1="2147.01" y1="1906.03" x2="2211.81" y2="1906.03" style="stroke:#F0F0F0;stroke-width:9.72"/>
	<line x1="2244.21" y1="1906.03" x2="2309.01" y2="1906.03" style="stroke:#F0F0F0;stroke-width:9.72"/>
	<line x1="2341.41" y1="1906.03" x2="2406.21" y2="1906.03" style="stroke:#F0F0F0;stroke-width:9.72"/>
	<line x1="2438.61" y1="1906.03" x2="2503.41" y2="1906.03" style="stroke:#F0F0F0;stroke-width:9.72"/>
	<line x1="2535.81" y1="1906.03" x2="2600.61" y2="1906.03" style="stroke:#F0F0F0;stroke-width:9.72"/>
	<line x1="2633.01" y1="1906.03" x2="2697.81" y2="1906.03" style="stroke:#F0F0F0;stroke-width:9.72"/>
	<line x1="2730.21" y1="1906.03" x2="2795.01" y2="1906.03" style="stroke:#F0F0F0;stroke-width:9.72"/>
	<line x1="2827.41" y1="1906.03" x2="2892.21" y2="1906.03" style="stroke:#F0F0F0;stroke-width:9.72"/>
	<line x1="2924.61" y1="1906.03" x2="2989.41" y2="1906.03" style="stroke:#F0F0F0;stroke-width:9.72"/>
	<line x1="3021.81" y1="1906.03" x2="3086.61" y2="1906.03" style="stroke:#F0F0F0;stroke-width:9.72"/>
	<line x1="3119.01" y1="1906.03" x2="3183.81" y2="1906.03" style="stroke:#F0F0F0;stroke-width:9.72"/>
	<line x1="3216.21" y1="1906.03" x2="3281.01" y2="1906.03" style="stroke:#F0F0F0;stroke-width:9.72"/>
	<line x1="3313.41" y1="1906.03" x2="3378.21" y2="1906.03" style="stroke:#F0F0F0;stroke-width:9.72"/>
	<line x1="3410.61" y1="1906.03" x2="3475.41" y2="1906.03" style="stroke:#F0F0F0;stroke-width:9.72"/>
	<line x1="3507.81" y1="1906.03" x2="3572.61" y2="1906.03" style="stroke:#F0F0F0;stroke-width:9.72"/>
	<line x1="3605.01" y1="1906.03" x2="3669.81" y2="1906.03" style="stroke:#F0F0F0;stroke-width:9.72"/>
	<line x1="3702.21" y1="1906.03" x2="3767.01" y2="1906.03" style="stroke:#F0F0F0;stroke-width:9.72"/>
	<line x1="3799.41" y1="1906.03" x2="3864.21" y2="1906.03" style="stroke:#F0F0F0;stroke-width:9.72"/>
	<line x1="3896.61" y1="1906.03" x2="3961.41" y2="1906.03" style="stroke:#F0F0F0;stroke-width:9.72"/>
	<line x1="3993.81" y1="1906.03" x2="4058.61" y2="1906.03" style="stroke:#F0F0F0;stroke-width:9.72"/>
	<line x1="4091.01" y1="1906.03" x2="4155.81" y2="1906.03" style="stroke:#F0F0F0;stroke-width:9.72"/>
	<line x1="4188.21" y1="1906.03" x2="4253.01" y2="1906.03" style="stroke:#F0F0F0;stroke-width:9.72"/>
	<line x1="4285.41" y1="1906.03" x2="4350.21" y2="1906.03" style="stroke:#F0F0F0;stroke-width:9.72"/>
	<line x1="4382.61" y1="1906.03" x2="4447.41" y2="1906.03" style="stroke:#F0F0F0;stroke-width:9.72"/>
	<line x1="4479.81" y1="1906.03" x2="4544.61" y2="1906.03" style="stroke:#F0F0F0;stroke-width:9.72"/>
	<line x1="4577.01" y1="1906.03" x2="4641.81" y2="1906.03" style="stroke:#F0F0F0;stroke-width:9.72"/>
	<line x1="4674.21" y1="1906.03" x2="4739.01" y2="1906.03" style="stroke:#F0F0F0;stroke-width:9.72"/>
	<line x1="4771.41" y1="1906.03" x2="4836.21" y2="1906.03" style="stroke:#F0F0F0;stroke-width:9.72"/>
	<line x1="4868.61" y1="1906.03" x2="4933.41" y2="1906.03" style="stroke:#F0F0F0;stroke-width:9.72"/>
	<line x1="4965.81" y1="1906.03" x2="5030.61" y2="1906.03" style="stroke:#F0F0F0;stroke-width:9.72"/>
	<line x1="5063.01" y1="1906.03" x2="5127.81" y2="1906.03" style="stroke:#F0F0F0;stroke-width:9.72"/>
	<line x1="5160.21" y1="1906.03" x2="5225.01" y2="1906.03" style="stroke:#F0F0F0;stroke-width:9.72"/>
	<line x1="5257.41" y1="1906.03" x2="5286.60" y2="1906.03" style="stroke:#F0F0F0;stroke-width:9.72"/>
	<line x1="786.21" y1="1045.41" x2="851.01" y2="1045.41" style="stroke:#F0F0F0;stroke-width:9.72"/>
	<line x1="883.41" y1="1045.41" x2="948.21" y2="1045.41" style="stroke:#F0F0F0;stroke-width:9.72"/>
	<line x1="980.61" y1="1045.41" x2="1045.41" y2="1045.41" style="stroke:#F0F0F0;stroke-width:9.72"/>
	<line x1="1077.81" y1="1045.41" x2="1142.61" y2="1045.41" style="stroke:#F0F0F0;stroke-width:9.72"/>
	<line x1="1175.01" y1="1045.41" x2="1239.81" y2="1045.41" style="stroke:#F0F0F0;stroke-width:9.72"/>
	<line x1="1272.21" y1="1045.41" x2="1337.01" y2="1045.41" style="stroke:#F0F0F0;stroke-width:9.72"/>
	<line x1="1369.41" y1="1045.41" x2="1434.21" y2="1045.41" style="stroke:#F0F0F0;stroke-width:9.72"/>
	<line x1="1466.61" y1="1045.41" x2="1531.41" y2="1045.41" style="stroke:#F0F0F0;stroke-width:9.72"/>
	<line x1="1563.81" y1="1045.41" x2="1628.61" y2="1045.41" style="stroke:#F0F0F0;stroke-width:9.72"/>
	<line x1="1661.01" y1="1045.41" x2="1725.81" y2="1045.41" style="stroke:#F0F0F0;stroke-width:9.72"/>
	<line x1="1758.21" y1="1045.41" x2="1823.01" y2="1045.41" style="stroke:#F0F0F0;stroke-width:9.72"/>
	<line x1="1855.41" y1="1045.41" x2="1920.21" y2="1045.41" style="stroke:#F0F0F0;stroke-width:9.72"/>
	<line x1="1952.61" y1="1045.41" x2="2017.41" y2="1045.41" style="stroke:#F0F0F0;stroke-width:9.72"/>
	<line x1="2049.81" y1="1045.41" x2="2114.61" y2="1045.41" style="stroke:#F0F0F0;stroke-width:9.72"/>
	<line x1="2147.01" y1="1045.41" x2="2211.81" y2="1045.41" style="stroke:#F0F0F0;stroke-width:9.72"/>
	<line x1="2244.21" y1="1045.41" x2="2309.01" y2="1045.41" style="stroke:#F0F0F0;stroke-width:9.72"/>
	<line x1="2341.41" y1="1045.41" x2="2406.21" y2="1045.41" style="stroke:#F0F0F0;stroke-width:9.72"/>
	<line x1="2438.61" y1="1045.41" x2="2503.41" y2="1045.41" style="stroke:#F0F0F0;stroke-width:9.72"/>
	<line x1="2535.81" y1="1045.41" x2="2600.61" y2="1045.41" style="stroke:#F0F0F0;stroke-width:9.72"/>
	<line x1="2633.01" y1="1045.41" x2="2697.81" y2="1045.41" style="stroke:#F0F0F0;stroke-width:9.72"/>
	<line x1="2730.21" y1="1045.41" x2="2795.01" y2="1045.41" style="stroke:#F0F0F0;stroke-width:9.72"/>
	<line x1="2827.41" y1="1045.41" x2="2892.21" y2="1045.41" style="stroke:#F0F0F0;stroke-width:9.72"/>
	<line x1="2924.61" y1="1045.41" x2="2989.41" y2="1045.41" style="stroke:#F0F0F0;stroke-width:9.72"/>
	<line x1="3021.81" y1="1045.41" x2="3086.61" y2="1045.41" style="stroke:#F0F0F0;stroke-width:9.72"/>
	<line x1="3119.01" y1="1045.41" x2="3183.81" y2="1045.41" style="stroke:#F0F0F0;stroke-width:9.72"/>
	<line x1="3216.21" y1="1045.41" x2="3281.01" y2="1045.41" style="stroke:#F0F0F0;stroke-width:9.72"/>
	<line x1="3313.41" y1="1045.41" x2="3378.21" y2="1045.41" style="stroke:#F0F0F0;stroke-width:9.72"/>
	<line x1="3410.61" y1="1045.41" x2="3475.41" y2="1045.41" style="stroke:#F0F0F0;stroke-width:9.72"/>
	<line x1="3507.81" y1="1045.41" x2="3572.61" y2="1045.41" style="stroke:#F0F0F0;stroke-width:9.72"/>
	<line x1="3605.01" y1="1045.41" x2="3669.81" y2="1045.41" style="stroke:#F0F0F0;stroke-width:9.72"/>
	<line x1="3702.21" y1="1045.41" x2="3767.01" y2="1045.41" style="stroke:#F0F0F0;stroke-width:9.72"/>
	<line x1="3799.41" y1="1045.41" x2="3864.21" y2="1045.41" style="stroke:#F0F0F0;stroke-width:9.72"/>
	<line x1="3896.61" y1="1045.41" x2="3961.41" y2="1045.41" style="stroke:#F0F0F0;stroke-width:9.72"/>
	<line x1="3993.81" y1="1045.41" x2="4058.61" y2="1045.41" style="stroke:#F0F0F0;stroke-width:9.72"/>
	<line x1="4091.01" y1="1045.41" x2="4155.81" y2="1045.41" style="stroke:#F0F0F0;stroke-width:9.72"/>
	<line x1="4188.21" y1="1045.41" x2="4253.01" y2="1045.41" style="stroke:#F0F0F0;stroke-width:9.72"/>
	<line x1="4285.41" y1="1045.41" x2="4350.21" y2="1045.41" style="stroke:#F0F0F0;stroke-width:9.72"/>
	<line x1="4382.61" y1="1045.41" x2="4447.41" y2="1045.41" style="stroke:#F0F0F0;stroke-width:9.72"/>
	<line x1="4479.81" y1="1045.41" x2="4544.61" y2="1045.41" style="stroke:#F0F0F0;stroke-width:9.72"/>
	<line x1="4577.01" y1="1045.41" x2="4641.81" y2="1045.41" style="stroke:#F0F0F0;stroke-width:9.72"/>
	<line x1="4674.21" y1="1045.41" x2="4739.01" y2="1045.41" style="stroke:#F0F0F0;stroke-width:9.72"/>
	<line x1="4771.41" y1="1045.41" x2="4836.21" y2="1045.41" style="stroke:#F0F0F0;stroke-width:9.72"/>
	<line x1="4868.61" y1="1045.41" x2="4933.41" y2="1045.41" style="stroke:#F0F0F0;stroke-width:9.72"/>
	<line x1="4965.81" y1="1045.41" x2="5030.61" y2="1045.41" style="stroke:#F0F0F0;stroke-width:9.72"/>
	<line x1="5063.01" y1="1045.41" x2="5127.81" y2="1045.41" style="stroke:#F0F0F0;stroke-width:9.72"/>
	<line x1="5160.21" y1="1045.41" x2="5225.01" y2="1045.41" style="stroke:#F0F0F0;stroke-width:9.72"/>
	<line x1="5257.41" y1="1045.41" x2="5286.60" y2="1045.41" style="stroke:#F0F0F0;stroke-width:9.72"/>
	<line x1="786.21" y1="184.61" x2="851.01" y2="184.61" style="stroke:#F0F0F0;stroke-width:9.72"/>
	<line x1="883.41" y1="184.61" x2="948.21" y2="184.61" style="stroke:#F0F0F0;stroke-width:9.72"/>
	<line x1="980.61" y1="184.61" x2="1045.41" y2="184.61" style="stroke:#F0F0F0;stroke-width:9.72"/>
	<line x1="1077.81" y1="184.61" x2="1142.61" y2="184.61" style="stroke:#F0F0F0;stroke-width:9.72"/>
	<line x1="1175.01" y1="184.61" x2="1239.81" y2="184.61" style="stroke:#F0F0F0;stroke-width:9.72"/>
	<line x1="1272.21" y1="184.61" x2="1337.01" y2="184.61" style="stroke:#F0F0F0;stroke-width:9.72"/>
	<line x1="1369.41" y1="184.61" x2="1434.21" y2="184.61" style="stroke:#F0F0F0;stroke-width:9.72"/>
	<line x1="1466.61" y1="184.61" x2="1531.41" y2="184.61" style="stroke:#F0F0F0;stroke-width:9.72"/>
	<line x1="1563.81" y1="184.61" x2="1628.61" y2="184.61" style="stroke:#F0F0F0;stroke-width:9.72"/>
	<line x1="1661.01" y1="184.61" x2="1725.81" y2="184.61" style="stroke:#F0F0F0;stroke-width:9.72"/>
	<line x1="1758.21" y1="184.61" x2="1823.01" y2="184.61" style="stroke:#F0F0F0;stroke-width:9.72"/>
	<line x1="1855.41" y1="184.61" x2="1920.21" y2="184.61" style="stroke:#F0F0F0;stroke-width:9.72"/>
	<line x1="1952.61" y1="184.61" x2="2017.41" y2="184.61" style="stroke:#F0F0F0;stroke-width:9.72"/>
	<line x1="2049.81" y1="184.61" x2="2114.61" y2="184.61" style="stroke:#F0F0F0;stroke-width:9.72"/>
	<line x1="2147.01" y1="184.61" x2="2211.81" y2="184.61" style="stroke:#F0F0F0;stroke-width:9.72"/>
	<line x1="2244.21" y1="184.61" x2="2309.01" y2="184.61" style="stroke:#F0F0F0;stroke-width:9.72"/>
	<line x1="2341.41" y1="184.61" x2="2406.21" y2="184.61" style="stroke:#F0F0F0;stroke-width:9.72"/>
	<line x1="2438.61" y1="184.61" x2="2503.41" y2="184.61" style="stroke:#F0F0F0;stroke-width:9.72"/>
	<line x1="2535.81" y1="184.61" x2="2600.61" y2="184.61" style="stroke:#F0F0F0;stroke-width:9.72"/>
	<line x1="2633.01" y1="184.61" x2="2697.81" y2="184.61" style="stroke:#F0F0F0;stroke-width:9.72"/>
	<line x1="2730.21" y1="184.61" x2="2795.01" y2="184.61" style="stroke:#F0F0F0;stroke-width:9.72"/>
	<line x1="2827.41" y1="184.61" x2="2892.21" y2="184.61" style="stroke:#F0F0F0;stroke-width:9.72"/>
	<line x1="2924.61" y1="184.61" x2="2989.41" y2="184.61" style="stroke:#F0F0F0;stroke-width:9.72"/>
	<line x1="3021.81" y1="184.61" x2="3086.61" y2="184.61" style="stroke:#F0F0F0;stroke-width:9.72"/>
	<line x1="3119.01" y1="184.61" x2="3183.81" y2="184.61" style="stroke:#F0F0F0;stroke-width:9.72"/>
	<line x1="3216.21" y1="184.61" x2="3281.01" y2="184.61" style="stroke:#F0F0F0;stroke-width:9.72"/>
	<line x1="3313.41" y1="184.61" x2="3378.21" y2="184.61" style="stroke:#F0F0F0;stroke-width:9.72"/>
	<line x1="3410.61" y1="184.61" x2="3475.41" y2="184.61" style="stroke:#F0F0F0;stroke-width:9.72"/>
	<line x1="3507.81" y1="184.61" x2="3572.61" y2="184.61" style="stroke:#F0F0F0;stroke-width:9.72"/>
	<line x1="3605.01" y1="184.61" x2="3669.81" y2="184.61" style="stroke:#F0F0F0;stroke-width:9.72"/>
	<line x1="3702.21" y1="184.61" x2="3767.01" y2="184.61" style="stroke:#F0F0F0;stroke-width:9.72"/>
	<line x1="3799.41" y1="184.61" x2="3864.21" y2="184.61" style="stroke:#F0F0F0;stroke-width:9.72"/>
	<line x1="3896.61" y1="184.61" x2="3961.41" y2="184.61" style="stroke:#F0F0F0;stroke-width:9.72"/>
	<line x1="3993.81" y1="184.61" x2="4058.61" y2="184.61" style="stroke:#F0F0F0;stroke-width:9.72"/>
	<line x1="4091.01" y1="184.61" x2="4155.81" y2="184.61" style="stroke:#F0F0F0;stroke-width:9.72"/>
	<line x1="4188.21" y1="184.61" x2="4253.01" y2="184.61" style="stroke:#F0F0F0;stroke-width:9.72"/>
	<line x1="4285.41" y1="184.61" x2="4350.21" y2="184.61" style="stroke:#F0F0F0;stroke-width:9.72"/>
	<line x1="4382.61" y1="184.61" x2="4447.41" y2="184.61" style="stroke:#F0F0F0;stroke-width:9.72"/>
	<line x1="4479.81" y1="184.61" x2="4544.61" y2="184.61" style="stroke:#F0F0F0;stroke-width:9.72"/>
	<line x1="4577.01" y1="184.61" x2="4641.81" y2="184.61" style="stroke:#F0F0F0;stroke-width:9.72"/>
	<line x1="4674.21" y1="184.61" x2="4739.01" y2="184.61" style="stroke:#F0F0F0;stroke-width:9.72"/>
	<line x1="4771.41" y1="184.61" x2="4836.21" y2="184.61" style="stroke:#F0F0F0;stroke-width:9.72"/>
	<line x1="4868.61" y1="184.61" x2="4933.41" y2="184.61" style="stroke:#F0F0F0;stroke-width:9.72"/>
	<line x1="4965.81" y1="184.61" x2="5030.61" y2="184.61" style="stroke:#F0F0F0;stroke-width:9.72"/>
	<line x1="5063.01" y1="184.61" x2="5127.81" y2="184.61" style="stroke:#F0F0F0;stroke-width:9.72"/>
	<line x1="5160.21" y1="184.61" x2="5225.01" y2="184.61" style="stroke:#F0F0F0;stroke-width:9.72"/>
	<line x1="5257.41" y1="184.61" x2="5286.60" y2="184.61" style="stroke:#F0F0F0;stroke-width:9.72"/>
	<line x1="905.51" y1="2766.66" x2="905.51" y2="2701.86" style="stroke:#F0F0F0;stroke-width:9.72"/>
	<line x1="905.51" y1="2669.46" x2="905.51" y2="2604.66" style="stroke:#F0F0F0;stroke-width:9.72"/>
	<line x1="905.51" y1="2572.26" x2="905.51" y2="2507.46" style="stroke:#F0F0F0;stroke-width:9.72"/>
	<line x1="905.51" y1="2475.06" x2="905.51" y2="2410.26" style="stroke:#F0F0F0;stroke-width:9.72"/>
	<line x1="905.51" y1="2377.86" x2="905.51" y2="2313.06" style="stroke:#F0F0F0;stroke-width:9.72"/>
	<line x1="905.51" y1="2280.66" x2="905.51" y2="2215.86" style="stroke:#F0F0F0;stroke-width:9.72"/>
	<line x1="905.51" y1="2183.46" x2="905.51" y2="2118.66" style="stroke:#F0F0F0;stroke-width:9.72"/>
	<line x1="905.51" y1="2086.26" x2="905.51" y2="2021.46" style="stroke:#F0F0F0;stroke-width:9.72"/>
	<line x1="905.51" y1="1989.06" x2="905.51" y2="1924.26" style="stroke:#F0F0F0;stroke-width:9.72"/>
	<line x1="905.51" y1="1891.86" x2="905.51" y2="1827.06" style="stroke:#F0F0F0;stroke-width:9.72"/>
	<line x1="905.51" y1="1794.66" x2="905.51" y2="1729.86" style="stroke:#F0F0F0;stroke-width:9.72"/>
	<line x1="905.51" y1="1697.46" x2="905.51" y2="1632.66" style="stroke:#F0F0F0;stroke-width:9.72"/>
	<line x1="905.51" y1="1600.26" x2="905.51" y2="1535.46" style="stroke:#F0F0F0;stroke-width:9.72"/>
	<line x1="905.51" y1="1503.06" x2="905.51" y2="1438.26" style="stroke:#F0F0F0;stroke-width:9.72"/>
	<line x1="905.51" y1="1405.86" x2="905.51" y2="1341.06" style="stroke:#F0F0F0;stroke-width:9.72"/>
	<line x1="905.51" y1="1308.66" x2="905.51" y2="1243.86" style="stroke:#F0F0F0;stroke-width:9.72"/>
	<line x1="905.51" y1="1211.46" x2="905.51" y2="1146.66" style="stroke:#F0F0F0;stroke-width:9.72"/>
	<line x1="905.51" y1="1114.26" x2="905.51" y2="1049.46" style="stroke:#F0F0F0;stroke-width:9.72"/>
	<line x1="905.51" y1="1017.06" x2="905.51" y2="952.26" style="stroke:#F0F0F0;stroke-width:9.72"/>
	<line x1="905.51" y1="919.86" x2="905.51" y2="855.06" style="stroke:#F0F0F0;stroke-width:9.72"/>
	<line x1="905.51" y1="822.66" x2="905.51" y2="757.86" style="stroke:#F0F0F0;stroke-width:9.72"/>
	<line x1="905.51" y1="725.46" x2="905.51" y2="660.66" style="stroke:#F0F0F0;stroke-width:9.72"/>
	<line x1="905.51" y1="628.26" x2="905.51" y2="563.46" style="stroke:#F0F0F0;stroke-width:9.72"/>
	<line x1="905.51" y1="531.06" x2="905.51" y2="466.26" style="stroke:#F0F0F0;stroke-width:9.72"/>
	<line x1="905.51" y1="433.86" x2="905.51" y2="369.06" style="stroke:#F0F0F0;stroke-width:9.72"/>
	<line x1="905.51" y1="336.66" x2="905.51" y2="271.86" style="stroke:#F0F0F0;stroke-width:9.72"/>
	<line x1="905.51" y1="239.46" x2="905.51" y2="174.66" style="stroke:#F0F0F0;stroke-width:9.72"/>
	<line x1="905.51" y1="142.26" x2="905.51" y2="113.40" style="stroke:#F0F0F0;stroke-width:9.72"/>
	<line x1="1966.95" y1="2766.66" x2="1966.95" y2="2701.86" style="stroke:#F0F0F0;stroke-width:9.72"/>
	<line x1="1966.95" y1="2669.46" x2="1966.95" y2="2604.66" style="stroke:#F0F0F0;stroke-width:9.72"/>
	<line x1="1966.95" y1="2572.26" x2="1966.95" y2="2507.46" style="stroke:#F0F0F0;stroke-width:9.72"/>
	<line x1="1966.95" y1="2475.06" x2="1966.95" y2="2410.26" style="stroke:#F0F0F0;stroke-width:9.72"/>
	<line x1="1966.95" y1="2377.86" x2="1966.95" y2="2313.06" style="stroke:#F0F0F0;stroke-width:9.72"/>
	<line x1="1966.95" y1="2280.66" x2="1966.95" y2="2215.86" style="stroke:#F0F0F0;stroke-width:9.72"/>
	<line x1="1966.95" y1="2183.46" x2="1966.95" y2="2118.66" style="stroke:#F0F0F0;stroke-width:9.72"/>
	<line x1="1966.95" y1="2086.26" x2="1966.95" y2="2021.46" style="stroke:#F0F0F0;stroke-width:9.72"/>
	<line x1="1966.95" y1="1989.06" x2="1966.95" y2="1924.26" style="stroke:#F0F0F0;stroke-width:9.72"/>
	<line x1="1966.95" y1="1891.86" x2="1966.95" y2="1827.06" style="stroke:#F0F0F0;stroke-width:9.72"/>
	<line x1="1966.95" y1="1794.66" x2="1966.95" y2="1729.86" style="stroke:#F0F0F0;stroke-width:9.72"/>
	<line x1="1966.95" y1="1697.46" x2="1966.95" y2="1632.66" style="stroke:#F0F0F0;stroke-width:9.72"/>
	<line x1="1966.95" y1="1600.26" x2="1966.95" y2="1535.46" style="stroke:#F0F0F0;stroke-width:9.72"/>
	<line x1="1966.95" y1="1503.06" x2="1966.95" y2="1438.26" style="stroke:#F0F0F0;stroke-width:9.72"/>
	<line x1="1966.95" y1="1405.86" x2="1966.95" y2="1341.06" style="stroke:#F0F0F0;stroke-width:9.72"/>
	<line x1="1966.95" y1="1308.66" x2="1966.95" y2="1243.86" style="stroke:#F0F0F0;stroke-width:9.72"/>
	<line x1="1966.95" y1="1211.46" x2="1966.95" y2="1146.66" style="stroke:#F0F0F0;stroke-width:9.72"/>
	<line x1="1966.95" y1="1114.26" x2="1966.95" y2="1049.46" style="stroke:#F0F0F0;stroke-width:9.72"/>
	<line x1="1966.95" y1="1017.06" x2="1966.95" y2="952.26" style="stroke:#F0F0F0;stroke-width:9.72"/>
	<line x1="1966.95" y1="919.86" x2="1966.95" y2="855.06" style="stroke:#F0F0F0;stroke-width:9.72"/>
	<line x1="1966.95" y1="822.66" x2="1966.95" y2="757.86" style="stroke:#F0F0F0;stroke-width:9.72"/>
	<line x1="1966.95" y1="725.46" x2="1966.95" y2="660.66" style="stroke:#F0F0F0;stroke-width:9.72"/>
	<line x1="1966.95" y1="628.26" x2="1966.95" y2="563.46" style="stroke:#F0F0F0;stroke-width:9.72"/>
	<line x1="1966.95" y1="531.06" x2="1966.95" y2="466.26" style="stroke:#F0F0F0;stroke-width:9.72"/>
	<line x1="1966.95" y1="433.86" x2="1966.95" y2="369.06" style="stroke:#F0F0F0;stroke-width:9.72"/>
	<line x1="1966.95" y1="336.66" x2="1966.95" y2="271.86" style="stroke:#F0F0F0;stroke-width:9.72"/>
	<line x1="1966.95" y1="239.46" x2="1966.95" y2="174.66" style="stroke:#F0F0F0;stroke-width:9.72"/>
	<line x1="1966.95" y1="142.26" x2="1966.95" y2="113.40" style="stroke:#F0F0F0;stroke-width:9.72"/>
	<line x1="3028.22" y1="2766.66" x2="3028.22" y2="2701.86" style="stroke:#F0F0F0;stroke-width:9.72"/>
	<line x1="3028.22" y1="2669.46" x2="3028.22" y2="2604.66" style="stroke:#F0F0F0;stroke-width:9.72"/>
	<line x1="3028.22" y1="2572.26" x2="3028.22" y2="2507.46" style="stroke:#F0F0F0;stroke-width:9.72"/>
	<line x1="3028.22" y1="2475.06" x2="3028.22" y2="2410.26" style="stroke:#F0F0F0;stroke-width:9.72"/>
	<line x1="3028.22" y1="2377.86" x2="3028.22" y2="2313.06" style="stroke:#F0F0F0;stroke-width:9.72"/>
	<line x1="3028.22" y1="2280.66" x2="3028.22" y2="2215.86" style="stroke:#F0F0F0;stroke-width:9.72"/>
	<line x1="3028.22" y1="2183.46" x2="3028.22" y2="2118.66" style="stroke:#F0F0F0;stroke-width:9.72"/>
	<line x1="3028.22" y1="2086.26" x2="3028.22" y2="2021.46" style="stroke:#F0F0F0;stroke-width:9.72"/>
	<line x1="3028.22" y1="1989.06" x2="3028.22" y2="1924.26" style="stroke:#F0F0F0;stroke-width:9.72"/>
	<line x1="3028.22" y1="1891.86" x2="3028.22" y2="1827.06" style="stroke:#F0F0F0;stroke-width:9.72"/>
	<line x1="3028.22" y1="1794.66" x2="3028.22" y2="1729.86" style="stroke:#F0F0F0;stroke-width:9.72"/>
	<line x1="3028.22" y1="1697.46" x2="3028.22" y2="1632.66" style="stroke:#F0F0F0;stroke-width:9.72"/>
	<line x1="3028.22" y1="1600.26" x2="3028.22" y2="1535.46" style="stroke:#F0F0F0;stroke-width:9.72"/>
	<line x1="3028.22" y1="1503.06" x2="3028.22" y2="1438.26" style="stroke:#F0F0F0;stroke-width:9.72"/>
	<line x1="3028.22" y1="1405.86" x2="3028.22" y2="1341.06" style="stroke:#F0F0F0;stroke-width:9.72"/>
	<line x1="3028.22" y1="1308.66" x2="3028.22" y2="1243.86" style="stroke:#F0F0F0;stroke-width:9.72"/>
	<line x1="3028.22" y1="1211.46" x2="3028.22" y2="1146.66" style="stroke:#F0F0F0;stroke-width:9.72"/>
	<line x1="3028.22" y1="1114.26" x2="3028.22" y2="1049.46" style="stroke:#F0F0F0;stroke-width:9.72"/>
	<line x1="3028.22" y1="1017.06" x2="3028.22" y2="952.26" style="stroke:#F0F0F0;stroke-width:9.72"/>
	<line x1="3028.22" y1="919.86" x2="3028.22" y2="855.06" style="stroke:#F0F0F0;stroke-width:9.72"/>
	<line x1="3028.22" y1="822.66" x2="3028.22" y2="757.86" style="stroke:#F0F0F0;stroke-width:9.72"/>
	<line x1="3028.22" y1="725.46" x2="3028.22" y2="660.66" style="stroke:#F0F0F0;stroke-width:9.72"/>
	<line x1="3028.22" y1="628.26" x2="3028.22" y2="563.46" style="stroke:#F0F0F0;stroke-width:9.72"/>
	<line x1="3028.22" y1="531.06" x2="3028.22" y2="466.26" style="stroke:#F0F0F0;stroke-width:9.72"/>
	<line x1="3028.22" y1="433.86" x2="3028.22" y2="369.06" style="stroke:#F0F0F0;stroke-width:9.72"/>
	<line x1="3028.22" y1="336.66" x2="3028.22" y2="271.86" style="stroke:#F0F0F0;stroke-width:9.72"/>
	<line x1="3028.22" y1="239.46" x2="3028.22" y2="174.66" style="stroke:#F0F0F0;stroke-width:9.72"/>
	<line x1="3028.22" y1="142.26" x2="3028.22" y2="113.40" style="stroke:#F0F0F0;stroke-width:9.72"/>
	<line x1="4089.49" y1="2766.66" x2="4089.49" y2="2701.86" style="stroke:#F0F0F0;stroke-width:9.72"/>
	<line x1="4089.49" y1="2669.46" x2="4089.49" y2="2604.66" style="stroke:#F0F0F0;stroke-width:9.72"/>
	<line x1="4089.49" y1="2572.26" x2="4089.49" y2="2507.46" style="stroke:#F0F0F0;stroke-width:9.72"/>
	<line x1="4089.49" y1="2475.06" x2="4089.49" y2="2410.26" style="stroke:#F0F0F0;stroke-width:9.72"/>
	<line x1="4089.49" y1="2377.86" x2="4089.49" y2="2313.06" style="stroke:#F0F0F0;stroke-width:9.72"/>
	<line x1="4089.49" y1="2280.66" x2="4089.49" y2="2215.86" style="stroke:#F0F0F0;stroke-width:9.72"/>
	<line x1="4089.49" y1="2183.46" x2="4089.49" y2="2118.66" style="stroke:#F0F0F0;stroke-width:9.72"/>
	<line x1="4089.49" y1="2086.26" x2="4089.49" y2="2021.46" style="stroke:#F0F0F0;stroke-width:9.72"/>
	<line x1="4089.49" y1="1989.06" x2="4089.49" y2="1924.26" style="stroke:#F0F0F0;stroke-width:9.72"/>
	<line x1="4089.49" y1="1891.86" x2="4089.49" y2="1827.06" style="stroke:#F0F0F0;stroke-width:9.72"/>
	<line x1="4089.49" y1="1794.66" x2="4089.49" y2="1729.86" style="stroke:#F0F0F0;stroke-width:9.72"/>
	<line x1="4089.49" y1="1697.46" x2="4089.49" y2="1632.66" style="stroke:#F0F0F0;stroke-width:9.72"/>
	<line x1="4089.49" y1="1600.26" x2="4089.49" y2="1535.46" style="stroke:#F0F0F0;stroke-width:9.72"/>
	<line x1="4089.49" y1="1503.06" x2="4089.49" y2="1438.26" style="stroke:#F0F0F0;stroke-width:9.72"/>
	<line x1="4089.49" y1="1405.86" x2="4089.49" y2="1341.06" style="stroke:#F0F0F0;stroke-width:9.72"/>
	<line x1="4089.49" y1="1308.66" x2="4089.49" y2="1243.86" style="stroke:#F0F0F0;stroke-width:9.72"/>
	<line x1="4089.49" y1="1211.46" x2="4089.49" y2="1146.66" style="stroke:#F0F0F0;stroke-width:9.72"/>
	<line x1="4089.49" y1="1114.26" x2="4089.49" y2="1049.46" style="stroke:#F0F0F0;stroke-width:9.72"/>
	<line x1="4089.49" y1="1017.06" x2="4089.49" y2="952.26" style="stroke:#F0F0F0;stroke-width:9.72"/>
	<line x1="4089.49" y1="919.86" x2="4089.49" y2="855.06" style="stroke:#F0F0F0;stroke-width:9.72"/>
	<line x1="4089.49" y1="822.66" x2="4089.49" y2="757.86" style="stroke:#F0F0F0;stroke-width:9.72"/>
	<line x1="4089.49" y1="725.46" x2="4089.49" y2="660.66" style="stroke:#F0F0F0;stroke-width:9.72"/>
	<line x1="4089.49" y1="628.26" x2="4089.49" y2="563.46" style="stroke:#F0F0F0;stroke-width:9.72"/>
	<line x1="4089.49" y1="531.06" x2="4089.49" y2="466.26" style="stroke:#F0F0F0;stroke-width:9.72"/>
	<line x1="4089.49" y1="433.86" x2="4089.49" y2="369.06" style="stroke:#F0F0F0;stroke-width:9.72"/>
	<line x1="4089.49" y1="336.66" x2="4089.49" y2="271.86" style="stroke:#F0F0F0;stroke-width:9.72"/>
	<line x1="4089.49" y1="239.46" x2="4089.49" y2="174.66" style="stroke:#F0F0F0;stroke-width:9.72"/>
	<line x1="4089.49" y1="142.26" x2="4089.49" y2="113.40" style="stroke:#F0F0F0;stroke-width:9.72"/>
	<line x1="5150.76" y1="2766.66" x2="5150.76" y2="2701.86" style="stroke:#F0F0F0;stroke-width:9.72"/>
	<line x1="5150.76" y1="2669.46" x2="5150.76" y2="2604.66" style="stroke:#F0F0F0;stroke-width:9.72"/>
	<line x1="5150.76" y1="2572.26" x2="5150.76" y2="2507.46" style="stroke:#F0F0F0;stroke-width:9.72"/>
	<line x1="5150.76" y1="2475.06" x2="5150.76" y2="2410.26" style="stroke:#F0F0F0;stroke-width:9.72"/>
	<line x1="5150.76" y1="2377.86" x2="5150.76" y2="2313.06" style="stroke:#F0F0F0;stroke-width:9.72"/>
	<line x1="5150.76" y1="2280.66" x2="5150.76" y2="2215.86" style="stroke:#F0F0F0;stroke-width:9.72"/>
	<line x1="5150.76" y1="2183.46" x2="5150.76" y2="2118.66" style="stroke:#F0F0F0;stroke-width:9.72"/>
	<line x1="5150.76" y1="2086.26" x2="5150.76" y2="2021.46" style="stroke:#F0F0F0;stroke-width:9.72"/>
	<line x1="5150.76" y1="1989.06" x2="5150.76" y2="1924.26" style="stroke:#F0F0F0;stroke-width:9.72"/>
	<line x1="5150.76" y1="1891.86" x2="5150.76" y2="1827.06" style="stroke:#F0F0F0;stroke-width:9.72"/>
	<line x1="5150.76" y1="1794.66" x2="5150.76" y2="1729.86" style="stroke:#F0F0F0;stroke-width:9.72"/>
	<line x1="5150.76" y1="1697.46" x2="5150.76" y2="1632.66" style="stroke:#F0F0F0;stroke-width:9.72"/>
	<line x1="5150.76" y1="1600.26" x2="5150.76" y2="1535.46" style="stroke:#F0F0F0;stroke-width:9.72"/>
	<line x1="5150.76" y1="1503.06" x2="5150.76" y2="1438.26" style="stroke:#F0F0F0;stroke-width:9.72"/>
	<line x1="5150.76" y1="1405.86" x2="5150.76" y2="1341.06" style="stroke:#F0F0F0;stroke-width:9.72"/>
	<line x1="5150.76" y1="1308.66" x2="5150.76" y2="1243.86" style="stroke:#F0F0F0;stroke-width:9.72"/>
	<line x1="5150.76" y1="1211.46" x2="5150.76" y2="1146.66" style="stroke:#F0F0F0;stroke-width:9.72"/>
	<line x1="5150.76" y1="1114.26" x2="5150.76" y2="1049.46" style="stroke:#F0F0F0;stroke-width:9.72"/>
	<line x1="5150.76" y1="1017.06" x2="5150.76" y2="952.26" style="stroke:#F0F0F0;stroke-width:9.72"/>
	<line x1="5150.76" y1="919.86" x2="5150.76" y2="855.06" style="stroke:#F0F0F0;stroke-width:9.72"/>
	<line x1="5150.76" y1="822.66" x2="5150.76" y2="757.86" style="stroke:#F0F0F0;stroke-width:9.72"/>
	<line x1="5150.76" y1="725.46" x2="5150.76" y2="660.66" style="stroke:#F0F0F0;stroke-width:9.72"/>
	<line x1="5150.76" y1="628.26" x2="5150.76" y2="563.46" style="stroke:#F0F0F0;stroke-width:9.72"/>
	<line x1="5150.76" y1="531.06" x2="5150.76" y2="466.26" style="stroke:#F0F0F0;stroke-width:9.72"/>
	<line x1="5150.76" y1="433.86" x2="5150.76" y2="369.06" style="stroke:#F0F0F0;stroke-width:9.72"/>
	<line x1="5150.76" y1="336.66" x2="5150.76" y2="271.86" style="stroke:#F0F0F0;stroke-width:9.72"/>
	<line x1="5150.76" y1="239.46" x2="5150.76" y2="174.66" style="stroke:#F0F0F0;stroke-width:9.72"/>
	<line x1="5150.76" y1="142.26" x2="5150.76" y2="113.40" style="stroke:#F0F0F0;stroke-width:9.72"/>
	<rect x="915.47" y="2562.64" width="116.27" height="204.02" style="fill:#3191FF"/>
	<rect x="917.90" y="2565.07" width="111.41" height="199.16" style="fill:none;stroke:#5FAAFF;stroke-width:4.86"/>
	<rect x="1031.74" y="1757.53" width="116.27" height="1009.13" style="fill:#3191FF"/>
	<rect x="1034.17" y="1759.96" width="111.41" height="1004.27" style="fill:none;stroke:#5FAAFF;stroke-width:4.86"/>
	<rect x="1148.01" y="606.66" width="116.10" height="2160.00" style="fill:#3191FF"/>
	<rect x="1150.44" y="609.09" width="111.24" height="2155.14" style="fill:none;stroke:#5FAAFF;stroke-width:4.86"/>
	<rect x="1264.11" y="309.49" width="116.27" height="2457.17" style="fill:#3191FF"/>
	<rect x="1266.54" y="311.92" width="111.41" height="2452.31" style="fill:none;stroke:#5FAAFF;stroke-width:4.86"/>
	<rect x="1380.38" y="205.88" width="116.27" height="2560.78" style="fill:#3191FF"/>
	<rect x="1382.81" y="208.31" width="111.41" height="2555.92" style="fill:none;stroke:#5FAAFF;stroke-width:4.86"/>
	<rect x="1496.64" y="527.18" width="116.10" height="2239.48" style="fill:#3191FF"/>
	<rect x="1499.07" y="529.61" width="111.24" height="2234.62" style="fill:none;stroke:#5FAAFF;stroke-width:4.86"/>
	<rect x="1612.74" y="651.71" width="116.27" height="2114.94" style="fill:#3191FF"/>
	<rect x="1615.17" y="654.14" width="111.41" height="2110.08" style="fill:none;stroke:#5FAAFF;stroke-width:4.86"/>
	<rect x="1729.01" y="1107.84" width="116.27" height="1658.81" style="fill:#3191FF"/>
	<rect x="1731.44" y="1110.27" width="111.41" height="1653.95" style="fill:none;stroke:#5FAAFF;stroke-width:4.86"/>
	<rect x="1845.28" y="1394.72" width="116.10" height="1371.94" style="fill:#3191FF"/>
	<rect x="1847.71" y="1397.15" width="111.24" height="1367.08" style="fill:none;stroke:#5FAAFF;stroke-width:4.86"/>
	<rect x="1961.38" y="1664.21" width="116.27" height="1102.44" style="fill:#3191FF"/>
	<rect x="1963.81" y="1666.64" width="111.41" height="1097.58" style="fill:none;stroke:#5FAAFF;stroke-width:4.86"/>
	<rect x="2077.65" y="2016.73" width="116.27" height="749.93" style="fill:#3191FF"/>
	<rect x="2080.08" y="2019.16" width="111.41" height="745.07" style="fill:none;stroke:#5FAAFF;stroke-width:4.86"/>
	<rect x="2193.92" y="2165.23" width="116.10" height="601.43" style="fill:#3191FF"/>
	<rect x="2196.35" y="2167.66" width="111.24" height="596.57" style="fill:none;stroke:#5FAAFF;stroke-width:4.86"/>
	<rect x="2310.02" y="2341.57" width="116.27" height="425.08" style="fill:#3191FF"/>
	<rect x="2312.45" y="2344.00" width="111.41" height="420.22" style="fill:none;stroke:#5FAAFF;stroke-width:4.86"/>
	<rect x="2426.29" y="2503.91" width="116.27" height="262.74" style="fill:#3191FF"/>
	<rect x="2428.72" y="2506.34" width="111.41" height="257.88" style="fill:none;stroke:#5FAAFF;stroke-width:4.86"/>
	<rect x="2542.56" y="2559.26" width="116.10" height="207.39" style="fill:#3191FF"/>
	<rect x="2544.99" y="2561.69" width="111.24" height="202.53" style="fill:none;stroke:#5FAAFF;stroke-width:4.86"/>
	<rect x="2658.66" y="2638.74" width="116.27" height="127.91" style="fill:#3191FF"/>
	<rect x="2661.09" y="2641.17" width="111.41" height="123.05" style="fill:none;stroke:#5FAAFF;stroke-width:4.86"/>
	<rect x="2774.93" y="2638.74" width="116.10" height="127.91" style="fill:#3191FF"/>
	<rect x="2777.36" y="2641.17" width="111.24" height="123.05" style="fill:none;stroke:#5FAAFF;stroke-width:4.86"/>
	<rect x="2891.03" y="2714.85" width="116.27" height="51.81" style="fill:#3191FF"/>
	<rect x="2893.46" y="2717.28" width="111.41" height="46.95" style="fill:none;stroke:#5FAAFF;stroke-width:4.86"/>
	<rect x="3007.29" y="2738.98" width="116.27" height="27.68" style="fill:#3191FF"/>
	<rect x="3009.72" y="2741.41" width="111.41" height="22.82" style="fill:none;stroke:#5FAAFF;stroke-width:4.86"/>
	<rect x="3123.56" y="2711.31" width="116.10" height="55.35" style="fill:#3191FF"/>
	<rect x="3125.99" y="2713.74" width="111.24" height="50.49" style="fill:none;stroke:#5FAAFF;stroke-width:4.86"/>
	<rect x="3239.66" y="2738.98" width="116.27" height="27.68" style="fill:#3191FF"/>
	<rect x="3242.09" y="2741.41" width="111.41" height="22.82" style="fill:none;stroke:#5FAAFF;stroke-width:4.86"/>
	<rect x="3355.93" y="2756.19" width="116.27" height="10.46" style="fill:#3191FF"/>
	<rect x="3358.36" y="2758.62" width="111.41" height="5.60" style="fill:none;stroke:#5FAAFF;stroke-width:4.86"/>
	<rect x="3472.20" y="2738.98" width="116.10" height="27.68" style="fill:#3191FF"/>
	<rect x="3474.63" y="2741.41" width="111.24" height="22.82" style="fill:none;stroke:#5FAAFF;stroke-width:4.86"/>
	<rect x="3588.30" y="2752.82" width="116.27" height="13.84" style="fill:#3191FF"/>
	<rect x="3590.73" y="2755.25" width="111.41" height="8.98" style="fill:none;stroke:#5FAAFF;stroke-width:4.86"/>
	<rect x="3704.57" y="2756.19" width="116.27" height="10.46" style="fill:#3191FF"/>
	<rect x="3707.00" y="2758.62" width="111.41" height="5.60" style="fill:none;stroke:#5FAAFF;stroke-width:4.86"/>
	<rect x="3820.84" y="2752.82" width="116.10" height="13.84" style="fill:#3191FF"/>
	<rect x="3823.27" y="2755.25" width="111.24" height="8.98" style="fill:none;stroke:#5FAAFF;stroke-width:4.86"/>
	<rect x="3936.94" y="2759.74" width="116.27" height="6.92" style="fill:#3191FF"/>
	<rect x="3939.37" y="2762.17" width="111.41" height="2.06" style="fill:none;stroke:#5FAAFF;stroke-width:4.86"/>
	<rect x="4053.21" y="2763.11" width="116.27" height="3.54" style="fill:#3191FF"/>
	<rect x="4055.64" y="2764.23" width="111.41" height="1.32" style="fill:none;stroke:#5FAAFF;stroke-width:4.86"/>
	<rect x="4169.48" y="2763.11" width="116.10" height="3.54" style="fill:#3191FF"/>
	<rect x="4171.91" y="2764.23" width="111.24" height="1.32" style="fill:none;stroke:#5FAAFF;stroke-width:4.86"/>
	<rect x="4285.58" y="2759.74" width="116.27" height="6.92" style="fill:#3191FF"/>
	<rect x="4288.01" y="2762.17" width="111.41" height="2.06" style="fill:none;stroke:#5FAAFF;stroke-width:4.86"/>
	<rect x="4401.84" y="2763.11" width="116.27" height="3.54" style="fill:#3191FF"/>
	<rect x="4404.27" y="2764.23" width="111.41" height="1.32" style="fill:none;stroke:#5FAAFF;stroke-width:4.86"/>
	<rect x="5099.12" y="2759.74" width="116.27" height="6.92" style="fill:#3191FF"/>
	<rect x="5101.55" y="2762.17" width="111.41" height="2.06" style="fill:none;stroke:#5FAAFF;stroke-width:4.86"/>
	<line x1="786.21" y1="2766.66" x2="786.21" y2="113.40" style="stroke:#000000;stroke-width:6.48"/>
	<line x1="786.21" y1="2766.66" x2="741.15" y2="2766.66" style="stroke:#000000;stroke-width:6.48"/>
	<text x="718.71" y="2806.09" style="font-family:'Helvetica';font-size:112.56px;fill:#000000" text-anchor="end">0</text>
	<line x1="786.21" y1="1906.03" x2="741.15" y2="1906.03" style="stroke:#000000;stroke-width:6.48"/>
	<text x="718.71" y="1945.47" style="font-family:'Helvetica';font-size:112.56px;fill:#000000" text-anchor="end">2.0e-04</text>
	<line x1="786.21" y1="1045.41" x2="741.15" y2="1045.41" style="stroke:#000000;stroke-width:6.48"/>
	<text x="718.71" y="1084.84" style="font-family:'Helvetica';font-size:112.56px;fill:#000000" text-anchor="end">4.0e-04</text>
	<line x1="786.21" y1="184.61" x2="741.15" y2="184.61" style="stroke:#000000;stroke-width:6.48"/>
	<text x="718.71" y="224.05" style="font-family:'Helvetica';font-size:112.56px;fill:#000000" text-anchor="end">6.0e-04</text>
	<text x="214.55" y="1439.94" style="font-family:'Helvetica';font-size:112.56px;fill:#000000" transform="rotate(-90 214.55,1439.94)" text-anchor="middle">Density</text>
	<line x1="786.21" y1="2766.66" x2="5286.60" y2="2766.66" style="stroke:#000000;stroke-width:6.48"/>
	<line x1="905.51" y1="2766.66" x2="905.51" y2="2811.54" style="stroke:#000000;stroke-width:6.48"/>
	<text x="905.51" y="2912.86" style="font-family:'Helvetica';font-size:112.56px;fill:#000000" text-anchor="middle">0</text>
	<line x1="1966.95" y1="2766.66" x2="1966.95" y2="2811.54" style="stroke:#000000;stroke-width:6.48"/>
	<text x="1966.95" y="2912.86" style="font-family:'Helvetica';font-size:112.56px;fill:#000000" text-anchor="middle">2000</text>
	<line x1="3028.22" y1="2766.66" x2="3028.22" y2="2811.54" style="stroke:#000000;stroke-width:6.48"/>
	<text x="3028.22" y="2912.86" style="font-family:'Helvetica';font-size:112.56px;fill:#000000" text-anchor="middle">4000</text>
	<line x1="4089.49" y1="2766.66" x2="4089.49" y2="2811.54" style="stroke:#000000;stroke-width:6.48"/>
	<text x="4089.49" y="2912.86" style="font-family:'Helvetica';font-size:112.56px;fill:#000000" text-anchor="middle">6000</text>
	<line x1="5150.76" y1="2766.66" x2="5150.76" y2="2811.54" style="stroke:#000000;stroke-width:6.48"/>
	<text x="5150.76" y="2912.86" style="font-family:'Helvetica';font-size:112.56px;fill:#000000" text-anchor="middle">8000</text>
	<text x="3036.32" y="3070.31" style="font-family:'Helvetica';font-size:112.56px;fill:#000000" text-anchor="middle">DOLLAREL</text>
</svg>
